<svg version="1.1" xmlns="http://www.w3.org/2000/svg" xmlns:xlink="http://www.w3.org/1999/xlink" width="965" height="661"><defs/><g><g transform="translate(-350,-54) scale(1,1)"><path fill="#ffffff" stroke="none" d="M 383.82072727272725 393.68 C 383.82072727272725 388.886167936 387.70656959767274 385 392.5 385 C 397.29343040232726 385 401.17927272727275 388.886167936 401.17927272727275 393.68 C 401.17927272727275 398.473832064 397.29343040232726 402.36 392.5 402.36 C 387.70656959767274 402.36 383.82072727272725 398.473832064 383.82072727272725 393.68 Z"/></g><g transform="translate(-350,-54) scale(1,1)"><path fill="none" stroke="#000000" d="M 383.82072727272725 393.68 C 383.82072727272725 388.886167936 387.70656959767274 385 392.5 385 C 397.29343040232726 385 401.17927272727275 388.886167936 401.17927272727275 393.68 C 401.17927272727275 398.473832064 397.29343040232726 402.36 392.5 402.36 C 387.70656959767274 402.36 383.82072727272725 398.473832064 383.82072727272725 393.68 Z" stroke-miterlimit="10"/></g><g transform="translate(-350,-54) scale(1,1)"><path fill="none" stroke="#000000" d="M 392.5 402.36 L 392.5 419.64" stroke-miterlimit="10"/></g><g transform="translate(-350,-54) scale(1,1)"><path fill="none" stroke="#000000" d="M 383.31018181818183 408.84 L 401.68981818181817 408.84" stroke-miterlimit="10"/></g><g transform="translate(-350,-54) scale(1,1)"><path fill="none" stroke="#000000" d="M 392.5 419.64 L 379.73636363636365 437" stroke-miterlimit="10"/></g><g transform="translate(-350,-54) scale(1,1)"><path fill="none" stroke="#000000" d="M 392.5 419.64 L 405.26363636363635 437" stroke-miterlimit="10"/></g><g transform="translate(-350,-54) scale(1,1)"><g><path fill="none" stroke="none"/><text fill="#000000" stroke="none" font-family="Arial" font-size="13px" font-style="normal" font-weight="bold" text-decoration="none" x="367" y="457.5">Utilizator</text></g></g><g transform="translate(-350,-54) scale(1,1)"><path fill="#C0C0C0" stroke="none" d="M 575 426.5 C 575 406.8938896 635.8892672 391 711 391 C 786.1107328 391 847 406.8938896 847 426.5 C 847 446.1061104 786.1107328 462 711 462 C 635.8892672 462 575 446.1061104 575 426.5 Z" opacity="0.2"/></g><g transform="translate(-350,-54) scale(1,1)"><path fill="#ffffff" stroke="none" d="M 568 419.5 C 568 399.8938896 628.8892672 384 704 384 C 779.1107328 384 840 399.8938896 840 419.5 C 840 439.1061104 779.1107328 455 704 455 C 628.8892672 455 568 439.1061104 568 419.5 Z"/></g><g transform="translate(-350,-54) scale(1,1)"><path fill="none" stroke="#000000" d="M 568 419.5 C 568 399.8938896 628.8892672 384 704 384 C 779.1107328 384 840 399.8938896 840 419.5 C 840 439.1061104 779.1107328 455 704 455 C 628.8892672 455 568 439.1061104 568 419.5 Z" stroke-miterlimit="10"/></g><g transform="translate(-350,-54) scale(1,1)"><g><path fill="none" stroke="none"/><text fill="#000000" stroke="none" font-family="Arial" font-size="13px" font-style="normal" font-weight="bold" text-decoration="none" x="629" y="413.5">Calculul potrivirii alinierii a</text><text fill="#000000" stroke="none" font-family="Arial" font-size="13px" font-style="normal" font-weight="bold" text-decoration="none" x="622.5" y="426.5">două texte și obținerea celui</text><text fill="#000000" stroke="none" font-family="Arial" font-size="13px" font-style="normal" font-weight="bold" text-decoration="none" x="666.5" y="439.5">mai bun scor</text></g></g><g transform="translate(-350,-54) scale(1,1)"><path fill="none" stroke="#000000" d="M 426 423 L 567 421" stroke-miterlimit="10"/></g><g transform="translate(-350,-54) scale(1,1)"><path fill="#C0C0C0" stroke="none" d="M 511 227.5 C 511 202.9233264 596.9613184 183 703 183 C 809.0386816 183 895 202.9233264 895 227.5 C 895 252.0766736 809.0386816 272 703 272 C 596.9613184 272 511 252.0766736 511 227.5 Z" opacity="0.2"/></g><g transform="translate(-350,-54) scale(1,1)"><path fill="#ffffff" stroke="none" d="M 504 220.5 C 504 195.9233264 589.9613184 176 696 176 C 802.0386816 176 888 195.9233264 888 220.5 C 888 245.0766736 802.0386816 265 696 265 C 589.9613184 265 504 245.0766736 504 220.5 Z"/></g><g transform="translate(-350,-54) scale(1,1)"><path fill="none" stroke="#000000" d="M 504 220.5 C 504 195.9233264 589.9613184 176 696 176 C 802.0386816 176 888 195.9233264 888 220.5 C 888 245.0766736 802.0386816 265 696 265 C 589.9613184 265 504 245.0766736 504 220.5 Z" stroke-miterlimit="10"/></g><g transform="translate(-350,-54) scale(1,1)"><g><path fill="none" stroke="none"/><text fill="#000000" stroke="none" font-family="Arial" font-size="13px" font-style="normal" font-weight="bold" text-decoration="none" x="575" y="214.5">Distanța Hamming: se numără pozițiile pe</text><text fill="#000000" stroke="none" font-family="Arial" font-size="13px" font-style="normal" font-weight="bold" text-decoration="none" x="579.5" y="227.5">care se află caractere diferite. Un număr</text><text fill="#000000" stroke="none" font-family="Arial" font-size="13px" font-style="normal" font-weight="bold" text-decoration="none" x="594" y="240.5">mai mic reprezintă un scor mai bun</text></g></g><g transform="translate(-350,-54) scale(1,1)"><path fill="none" stroke="#000000" d="M 703 383 L 698 266" stroke-miterlimit="10" stroke-dasharray="3"/></g><g transform="translate(-350,-54) scale(1,1)"><path fill="none" stroke="#000000" d="M 702.6395854328658 275.97367770740254 L 698 266 L 694.2282271812004 276.33313746174724" stroke-miterlimit="10"/></g><g transform="translate(-350,-54) scale(1,1)"><g><path fill="none" stroke="none"/><text fill="#000000" stroke="none" font-family="Arial" font-size="13px" font-style="normal" font-weight="normal" text-decoration="none" x="644" y="332">«extend»</text></g></g><g transform="translate(-350,-54) scale(1,1)"><path fill="#C0C0C0" stroke="none" d="M 903 134 C 903 99.20605760000001 984.708024 71 1085.5 71 C 1186.291976 71 1268 99.20605760000001 1268 134 C 1268 168.7939424 1186.291976 197 1085.5 197 C 984.708024 197 903 168.7939424 903 134 Z" opacity="0.2"/></g><g transform="translate(-350,-54) scale(1,1)"><path fill="#ffffff" stroke="none" d="M 896 127 C 896 92.20605760000001 977.708024 64 1078.5 64 C 1179.291976 64 1261 92.20605760000001 1261 127 C 1261 161.7939424 1179.291976 190 1078.5 190 C 977.708024 190 896 161.7939424 896 127 Z"/></g><g transform="translate(-350,-54) scale(1,1)"><path fill="none" stroke="#000000" d="M 896 127 C 896 92.20605760000001 977.708024 64 1078.5 64 C 1179.291976 64 1261 92.20605760000001 1261 127 C 1261 161.7939424 1179.291976 190 1078.5 190 C 977.708024 190 896 161.7939424 896 127 Z" stroke-miterlimit="10"/></g><g transform="translate(-350,-54) scale(1,1)"><g><path fill="none" stroke="none"/><text fill="#000000" stroke="none" font-family="Arial" font-size="13px" font-style="normal" font-weight="bold" text-decoration="none" x="990.5" y="101.5">Distanța Levenshtein: numărul</text><text fill="#000000" stroke="none" font-family="Arial" font-size="13px" font-style="normal" font-weight="bold" text-decoration="none" x="1025.5" y="114.5">schimbărilor de tip</text><text fill="#000000" stroke="none" font-family="Arial" font-size="13px" font-style="normal" font-weight="bold" text-decoration="none" x="967.5" y="127.5">inserare/ștergere/modificare ce trebuie</text><text fill="#000000" stroke="none" font-family="Arial" font-size="13px" font-style="normal" font-weight="bold" text-decoration="none" x="974" y="140.5">efectuate asupra unui text pentru a-l</text><text fill="#000000" stroke="none" font-family="Arial" font-size="13px" font-style="normal" font-weight="bold" text-decoration="none" x="967.5" y="153.5">aduce la cel de-al doile. Un număr mai</text><text fill="#000000" stroke="none" font-family="Arial" font-size="13px" font-style="normal" font-weight="bold" text-decoration="none" x="989" y="166.5">mic reprezintă un scor mai bun</text></g></g><g transform="translate(-350,-54) scale(1,1)"><path fill="none" stroke="#000000" d="M 750 383 L 996 191" stroke-miterlimit="10" stroke-dasharray="3"/></g><g transform="translate(-350,-54) scale(1,1)"><path fill="none" stroke="#000000" d="M 990.578596597886 200.57122694076085 L 996 191 L 985.39860941673 193.93436836490474" stroke-miterlimit="10"/></g><g transform="translate(-350,-54) scale(1,1)"><g><path fill="none" stroke="none"/><text fill="#000000" stroke="none" font-family="Arial" font-size="13px" font-style="normal" font-weight="normal" text-decoration="none" x="864" y="316">«extend»</text></g></g><g transform="translate(-350,-54) scale(1,1)"><path fill="#C0C0C0" stroke="none" d="M 391 667.5 C 391 642.9233264 479.1998944 623 588 623 C 696.8001056 623 785 642.9233264 785 667.5 C 785 692.0766736 696.8001056 712 588 712 C 479.1998944 712 391 692.0766736 391 667.5 Z" opacity="0.2"/></g><g transform="translate(-350,-54) scale(1,1)"><path fill="#ffffff" stroke="none" d="M 384 660.5 C 384 635.9233264 472.1998944 616 581 616 C 689.8001056 616 778 635.9233264 778 660.5 C 778 685.0766736 689.8001056 705 581 705 C 472.1998944 705 384 685.0766736 384 660.5 Z"/></g><g transform="translate(-350,-54) scale(1,1)"><path fill="none" stroke="#000000" d="M 384 660.5 C 384 635.9233264 472.1998944 616 581 616 C 689.8001056 616 778 635.9233264 778 660.5 C 778 685.0766736 689.8001056 705 581 705 C 472.1998944 705 384 685.0766736 384 660.5 Z" stroke-miterlimit="10"/></g><g transform="translate(-350,-54) scale(1,1)"><g><path fill="none" stroke="none"/><text fill="#000000" stroke="none" font-family="Arial" font-size="13px" font-style="normal" font-weight="bold" text-decoration="none" x="460" y="648">Cel mai lung subșir comun: se calculează</text><text fill="#000000" stroke="none" font-family="Arial" font-size="13px" font-style="normal" font-weight="bold" text-decoration="none" x="465" y="661">lungimea celui mai lung subșir comun al</text><text fill="#000000" stroke="none" font-family="Arial" font-size="13px" font-style="normal" font-weight="bold" text-decoration="none" x="473.5" y="674">celor două texte. Un număr mai mare</text><text fill="#000000" stroke="none" font-family="Arial" font-size="13px" font-style="normal" font-weight="bold" text-decoration="none" x="504" y="687">reprezintă un scor mai bun</text></g></g><g transform="translate(-350,-54) scale(1,1)"><path fill="none" stroke="#000000" d="M 685 456 L 604 615" stroke-miterlimit="10" stroke-dasharray="3"/></g><g transform="translate(-350,-54) scale(1,1)"><path fill="none" stroke="#000000" d="M 604.8622535427123 604.0338466713218 L 604 615 L 612.3639467093938 607.8554639449143" stroke-miterlimit="10"/></g><g transform="translate(-350,-54) scale(1,1)"><g><path fill="none" stroke="none"/><text fill="#000000" stroke="none" font-family="Arial" font-size="13px" font-style="normal" font-weight="normal" text-decoration="none" x="644" y="555">«extend»</text></g></g><g transform="translate(-350,-54) scale(1,1)"><path fill="#C0C0C0" stroke="none" d="M 847 643.5 C 847 618.9233264 951.093784 599 1079.5 599 C 1207.906216 599 1312 618.9233264 1312 643.5 C 1312 668.0766736 1207.906216 688 1079.5 688 C 951.093784 688 847 668.0766736 847 643.5 Z" opacity="0.2"/></g><g transform="translate(-350,-54) scale(1,1)"><path fill="#ffffff" stroke="none" d="M 840 636.5 C 840 611.9233264 944.093784 592 1072.5 592 C 1200.906216 592 1305 611.9233264 1305 636.5 C 1305 661.0766736 1200.906216 681 1072.5 681 C 944.093784 681 840 661.0766736 840 636.5 Z"/></g><g transform="translate(-350,-54) scale(1,1)"><path fill="none" stroke="#000000" d="M 840 636.5 C 840 611.9233264 944.093784 592 1072.5 592 C 1200.906216 592 1305 611.9233264 1305 636.5 C 1305 661.0766736 1200.906216 681 1072.5 681 C 944.093784 681 840 661.0766736 840 636.5 Z" stroke-miterlimit="10"/></g><g transform="translate(-350,-54) scale(1,1)"><g><path fill="none" stroke="none"/><text fill="#000000" stroke="none" font-family="Arial" font-size="13px" font-style="normal" font-weight="bold" text-decoration="none" x="945" y="624">Distanța Jaro-Winkler: inversul numărului de</text><text fill="#000000" stroke="none" font-family="Arial" font-size="13px" font-style="normal" font-weight="bold" text-decoration="none" x="931" y="637">modificări ce trebuie făcute pentru a  obține două</text><text fill="#000000" stroke="none" font-family="Arial" font-size="13px" font-style="normal" font-weight="bold" text-decoration="none" x="933" y="650">texte identice. Un număr mai mare reprezintă un</text><text fill="#000000" stroke="none" font-family="Arial" font-size="13px" font-style="normal" font-weight="bold" text-decoration="none" x="1035" y="663">scor mai bun</text></g></g><g transform="translate(-350,-54) scale(1,1)"><path fill="none" stroke="#000000" d="M 767 456 L 996 591" stroke-miterlimit="10" stroke-dasharray="3"/></g><g transform="translate(-350,-54) scale(1,1)"><path fill="none" stroke="#000000" d="M 985.1075912536578 589.4652584248129 L 996 591 L 989.3831300871896 582.212677736822" stroke-miterlimit="10"/></g><g transform="translate(-350,-54) scale(1,1)"><g><path fill="none" stroke="none"/><text fill="#000000" stroke="none" font-family="Arial" font-size="13px" font-style="normal" font-weight="normal" text-decoration="none" x="870" y="504">«extend»</text></g></g></g></svg>