<svg version="1.1" xmlns="http://www.w3.org/2000/svg" xmlns:xlink="http://www.w3.org/1999/xlink" width="1412" height="896"><defs/><g><g transform="translate(-6,-6) scale(1,1)"><path fill="#ffffff" stroke="none" d="M 63.82072727272727 361.68 C 63.82072727272727 356.886167936 67.70656959767273 353 72.5 353 C 77.29343040232727 353 81.17927272727273 356.886167936 81.17927272727273 361.68 C 81.17927272727273 366.473832064 77.29343040232727 370.36 72.5 370.36 C 67.70656959767273 370.36 63.82072727272727 366.473832064 63.82072727272727 361.68 Z"/></g><g transform="translate(-6,-6) scale(1,1)"><path fill="none" stroke="#000000" d="M 63.82072727272727 361.68 C 63.82072727272727 356.886167936 67.70656959767273 353 72.5 353 C 77.29343040232727 353 81.17927272727273 356.886167936 81.17927272727273 361.68 C 81.17927272727273 366.473832064 77.29343040232727 370.36 72.5 370.36 C 67.70656959767273 370.36 63.82072727272727 366.473832064 63.82072727272727 361.68 Z" stroke-miterlimit="10"/></g><g transform="translate(-6,-6) scale(1,1)"><path fill="none" stroke="#000000" d="M 72.5 370.36 L 72.5 387.64" stroke-miterlimit="10"/></g><g transform="translate(-6,-6) scale(1,1)"><path fill="none" stroke="#000000" d="M 63.31018181818182 376.84 L 81.68981818181818 376.84" stroke-miterlimit="10"/></g><g transform="translate(-6,-6) scale(1,1)"><path fill="none" stroke="#000000" d="M 72.5 387.64 L 59.736363636363635 405" stroke-miterlimit="10"/></g><g transform="translate(-6,-6) scale(1,1)"><path fill="none" stroke="#000000" d="M 72.5 387.64 L 85.26363636363637 405" stroke-miterlimit="10"/></g><g transform="translate(-6,-6) scale(1,1)"><g><path fill="none" stroke="none"/><text fill="#000000" stroke="none" font-family="Arial" font-size="13px" font-style="normal" font-weight="bold" text-decoration="none" x="47" y="425.5">Utilizator</text></g></g><g transform="translate(-6,-6) scale(1,1)"><path fill="#C0C0C0" stroke="none" d="M 279 401 C 279 386.6405952 372.1247616 375 487 375 C 601.8752384 375 695 386.6405952 695 401 C 695 415.3594048 601.8752384 427 487 427 C 372.1247616 427 279 415.3594048 279 401 Z" opacity="0.2"/></g><g transform="translate(-6,-6) scale(1,1)"><path fill="#ffffff" stroke="none" d="M 272 394 C 272 379.6405952 365.1247616 368 480 368 C 594.8752384 368 688 379.6405952 688 394 C 688 408.3594048 594.8752384 420 480 420 C 365.1247616 420 272 408.3594048 272 394 Z"/></g><g transform="translate(-6,-6) scale(1,1)"><path fill="none" stroke="#000000" d="M 272 394 C 272 379.6405952 365.1247616 368 480 368 C 594.8752384 368 688 379.6405952 688 394 C 688 408.3594048 594.8752384 420 480 420 C 365.1247616 420 272 408.3594048 272 394 Z" stroke-miterlimit="10"/></g><g transform="translate(-6,-6) scale(1,1)"><g><path fill="none" stroke="none"/><text fill="#000000" stroke="none" font-family="Arial" font-size="13px" font-style="normal" font-weight="bold" text-decoration="none" x="372.5" y="394.5">Obținerea unei alinieri a două texte și</text><text fill="#000000" stroke="none" font-family="Arial" font-size="13px" font-style="normal" font-weight="bold" text-decoration="none" x="374.5" y="407.5">alegerea alinierii cu cel mai bun scor</text></g></g><g transform="translate(-6,-6) scale(1,1)"><path fill="none" stroke="#000000" d="M 106 391 L 271 392" stroke-miterlimit="10"/></g><g transform="translate(-6,-6) scale(1,1)"><path fill="none" stroke="#000000" d="M 260.81200001927107 396.14784961066175 L 271 392 L 260.86302353985724 387.728968713939" stroke-miterlimit="10"/></g><g transform="translate(-6,-6) scale(1,1)"><path fill="#C0C0C0" stroke="none" d="M 263 537 C 263 522.6405952 345.3795968 511 447 511 C 548.6204032 511 631 522.6405952 631 537 C 631 551.3594048 548.6204032 563 447 563 C 345.3795968 563 263 551.3594048 263 537 Z" opacity="0.2"/></g><g transform="translate(-6,-6) scale(1,1)"><path fill="#ffffff" stroke="none" d="M 256 530 C 256 515.6405952 338.3795968 504 440 504 C 541.6204032 504 624 515.6405952 624 530 C 624 544.3594048 541.6204032 556 440 556 C 338.3795968 556 256 544.3594048 256 530 Z"/></g><g transform="translate(-6,-6) scale(1,1)"><path fill="none" stroke="#000000" d="M 256 530 C 256 515.6405952 338.3795968 504 440 504 C 541.6204032 504 624 515.6405952 624 530 C 624 544.3594048 541.6204032 556 440 556 C 338.3795968 556 256 544.3594048 256 530 Z" stroke-miterlimit="10"/></g><g transform="translate(-6,-6) scale(1,1)"><g><path fill="none" stroke="none"/><text fill="#000000" stroke="none" font-family="Arial" font-size="13px" font-style="normal" font-weight="bold" text-decoration="none" x="329" y="530.5">Obținerea unei alinieri globale utilizând</text><text fill="#000000" stroke="none" font-family="Arial" font-size="13px" font-style="normal" font-weight="bold" text-decoration="none" x="352" y="543.5">algoritmul Needleman-Wunsch</text></g></g><g transform="translate(-6,-6) scale(1,1)"><path fill="none" stroke="#000000" d="M 472 421 L 448 503" stroke-miterlimit="10" stroke-dasharray="3"/></g><g transform="translate(-6,-6) scale(1,1)"><path fill="none" stroke="#000000" d="M 446.8146510414882 492.0640524943398 L 448 503 L 454.8947143533163 494.42894907341145" stroke-miterlimit="10"/></g><g transform="translate(-6,-6) scale(1,1)"><g><path fill="none" stroke="none"/><text fill="#000000" stroke="none" font-family="Arial" font-size="13px" font-style="normal" font-weight="normal" text-decoration="none" x="462" y="477">«extend»</text></g></g><g transform="translate(-6,-6) scale(1,1)"><path fill="#C0C0C0" stroke="none" d="M 167 241 C 167 226.6405952 260.1247616 215 375 215 C 489.8752384 215 583 226.6405952 583 241 C 583 255.3594048 489.8752384 267 375 267 C 260.1247616 267 167 255.3594048 167 241 Z" opacity="0.2"/></g><g transform="translate(-6,-6) scale(1,1)"><path fill="#ffffff" stroke="none" d="M 160 234 C 160 219.6405952 253.1247616 208 368 208 C 482.8752384 208 576 219.6405952 576 234 C 576 248.3594048 482.8752384 260 368 260 C 253.1247616 260 160 248.3594048 160 234 Z"/></g><g transform="translate(-6,-6) scale(1,1)"><path fill="none" stroke="#000000" d="M 160 234 C 160 219.6405952 253.1247616 208 368 208 C 482.8752384 208 576 219.6405952 576 234 C 576 248.3594048 482.8752384 260 368 260 C 253.1247616 260 160 248.3594048 160 234 Z" stroke-miterlimit="10"/></g><g transform="translate(-6,-6) scale(1,1)"><g><path fill="none" stroke="none"/><text fill="#000000" stroke="none" font-family="Arial" font-size="13px" font-style="normal" font-weight="bold" text-decoration="none" x="260.5" y="234.5">Obținerea unei alinieri locale utilizând</text><text fill="#000000" stroke="none" font-family="Arial" font-size="13px" font-style="normal" font-weight="bold" text-decoration="none" x="270" y="247.5">algoritmul Smith-Waterman-Gotoh</text></g></g><g transform="translate(-6,-6) scale(1,1)"><path fill="#C0C0C0" stroke="none" d="M 23 66.5 C 23 46.893889599999994 121.497344 31 243 31 C 364.502656 31 463 46.893889599999994 463 66.5 C 463 86.1061104 364.502656 102 243 102 C 121.497344 102 23 86.1061104 23 66.5 Z" opacity="0.2"/></g><g transform="translate(-6,-6) scale(1,1)"><path fill="#ffffff" stroke="none" d="M 16 59.5 C 16 39.893889599999994 114.497344 24 236 24 C 357.502656 24 456 39.893889599999994 456 59.5 C 456 79.1061104 357.502656 95 236 95 C 114.497344 95 16 79.1061104 16 59.5 Z"/></g><g transform="translate(-6,-6) scale(1,1)"><path fill="none" stroke="#000000" d="M 16 59.5 C 16 39.893889599999994 114.497344 24 236 24 C 357.502656 24 456 39.893889599999994 456 59.5 C 456 79.1061104 357.502656 95 236 95 C 114.497344 95 16 79.1061104 16 59.5 Z" stroke-miterlimit="10"/></g><g transform="translate(-6,-6) scale(1,1)"><g><path fill="none" stroke="none"/><text fill="#000000" stroke="none" font-family="Arial" font-size="13px" font-style="normal" font-weight="bold" text-decoration="none" x="122" y="53.5">Se încearcă diferite matrici de potrivire,</text><text fill="#000000" stroke="none" font-family="Arial" font-size="13px" font-style="normal" font-weight="bold" text-decoration="none" x="116.5" y="66.5">alegându-se cea care oferă cea mai bună</text><text fill="#000000" stroke="none" font-family="Arial" font-size="13px" font-style="normal" font-weight="bold" text-decoration="none" x="213" y="79.5">potrivire</text></g></g><g transform="translate(-6,-6) scale(1,1)"><path fill="none" stroke="#000000" d="M 348 207 L 264 96" stroke-miterlimit="10" stroke-dasharray="3"/></g><g transform="translate(-6,-6) scale(1,1)"><path fill="none" stroke="#000000" d="M 273.4892879912656 101.5635791913859 L 264 96 L 266.77589531335866 106.64398446115332" stroke-miterlimit="10"/></g><g transform="translate(-6,-6) scale(1,1)"><g><path fill="none" stroke="none"/><text fill="#000000" stroke="none" font-family="Arial" font-size="13px" font-style="normal" font-weight="normal" text-decoration="none" x="253" y="167">«include»</text></g></g><g transform="translate(-6,-6) scale(1,1)"><path fill="#C0C0C0" stroke="none" d="M 479 67.5 C 479 42.9233264 564.065888 23 669 23 C 773.934112 23 859 42.9233264 859 67.5 C 859 92.07667359999999 773.934112 112 669 112 C 564.065888 112 479 92.07667359999999 479 67.5 Z" opacity="0.2"/></g><g transform="translate(-6,-6) scale(1,1)"><path fill="#ffffff" stroke="none" d="M 472 60.5 C 472 35.9233264 557.065888 16 662 16 C 766.934112 16 852 35.9233264 852 60.5 C 852 85.07667359999999 766.934112 105 662 105 C 557.065888 105 472 85.07667359999999 472 60.5 Z"/></g><g transform="translate(-6,-6) scale(1,1)"><path fill="none" stroke="#000000" d="M 472 60.5 C 472 35.9233264 557.065888 16 662 16 C 766.934112 16 852 35.9233264 852 60.5 C 852 85.07667359999999 766.934112 105 662 105 C 557.065888 105 472 85.07667359999999 472 60.5 Z" stroke-miterlimit="10"/></g><g transform="translate(-6,-6) scale(1,1)"><g><path fill="none" stroke="none"/><text fill="#000000" stroke="none" font-family="Arial" font-size="13px" font-style="normal" font-weight="bold" text-decoration="none" x="576.5" y="48">Algoritm creat pentru șiruri de</text><text fill="#000000" stroke="none" font-family="Arial" font-size="13px" font-style="normal" font-weight="bold" text-decoration="none" x="548.5" y="61">nucleotide, va avea nevoie de adaptare</text><text fill="#000000" stroke="none" font-family="Arial" font-size="13px" font-style="normal" font-weight="bold" text-decoration="none" x="541" y="74">pentru text (matrice de substituție care să</text><text fill="#000000" stroke="none" font-family="Arial" font-size="13px" font-style="normal" font-weight="bold" text-decoration="none" x="603" y="87">conțină tot alfabetul)</text></g></g><g transform="translate(-6,-6) scale(1,1)"><path fill="none" stroke="#000000" d="M 414 207 L 584 106" stroke-miterlimit="10" stroke-dasharray="3"/></g><g transform="translate(-6,-6) scale(1,1)"><path fill="none" stroke="#000000" d="M 577.4130918146602 114.80980366171141 L 584 106 L 573.1128806449749 107.57182446521128" stroke-miterlimit="10"/></g><g transform="translate(-6,-6) scale(1,1)"><g><path fill="none" stroke="none"/><text fill="#000000" stroke="none" font-family="Arial" font-size="13px" font-style="normal" font-weight="normal" text-decoration="none" x="434" y="153">«extend»</text></g></g><g transform="translate(-6,-6) scale(1,1)"><path fill="none" stroke="#000000" d="M 461 367 L 387 261" stroke-miterlimit="10" stroke-dasharray="3"/></g><g transform="translate(-6,-6) scale(1,1)"><path fill="none" stroke="#000000" d="M 396.2689827132472 266.923340228412 L 387 261 L 389.3657264884528 271.7425945740232" stroke-miterlimit="10"/></g><g transform="translate(-6,-6) scale(1,1)"><g><path fill="none" stroke="none"/><text fill="#000000" stroke="none" font-family="Arial" font-size="13px" font-style="normal" font-weight="normal" text-decoration="none" x="357" y="324">«extend»</text></g></g><g transform="translate(-6,-6) scale(1,1)"><path fill="#C0C0C0" stroke="none" d="M 127 690.5 C 127 670.8938896 232.8846448 655 363.5 655 C 494.1153552 655 600 670.8938896 600 690.5 C 600 710.1061104 494.1153552 726 363.5 726 C 232.8846448 726 127 710.1061104 127 690.5 Z" opacity="0.2"/></g><g transform="translate(-6,-6) scale(1,1)"><path fill="#ffffff" stroke="none" d="M 120 683.5 C 120 663.8938896 225.8846448 648 356.5 648 C 487.1153552 648 593 663.8938896 593 683.5 C 593 703.1061104 487.1153552 719 356.5 719 C 225.8846448 719 120 703.1061104 120 683.5 Z"/></g><g transform="translate(-6,-6) scale(1,1)"><path fill="none" stroke="#000000" d="M 120 683.5 C 120 663.8938896 225.8846448 648 356.5 648 C 487.1153552 648 593 663.8938896 593 683.5 C 593 703.1061104 487.1153552 719 356.5 719 C 225.8846448 719 120 703.1061104 120 683.5 Z" stroke-miterlimit="10"/></g><g transform="translate(-6,-6) scale(1,1)"><g><path fill="none" stroke="none"/><text fill="#000000" stroke="none" font-family="Arial" font-size="13px" font-style="normal" font-weight="bold" text-decoration="none" x="212.5" y="677.5">Algoritm creat pentru șiruri de nucleotide, va avea</text><text fill="#000000" stroke="none" font-family="Arial" font-size="13px" font-style="normal" font-weight="bold" text-decoration="none" x="234" y="690.5">nevoie de adaptare pentru text (matrice de</text><text fill="#000000" stroke="none" font-family="Arial" font-size="13px" font-style="normal" font-weight="bold" text-decoration="none" x="242" y="703.5">substituție care să conțină tot alfabetul)</text></g></g><g transform="translate(-6,-6) scale(1,1)"><path fill="none" stroke="#000000" d="M 425 557 L 376 647" stroke-miterlimit="10" stroke-dasharray="3"/></g><g transform="translate(-6,-6) scale(1,1)"><path fill="none" stroke="#000000" d="M 377.1623828492016 636.0615875872281 L 376 647 L 384.5565543874915 640.0873032025193" stroke-miterlimit="10"/></g><g transform="translate(-6,-6) scale(1,1)"><g><path fill="none" stroke="none"/><text fill="#000000" stroke="none" font-family="Arial" font-size="13px" font-style="normal" font-weight="normal" text-decoration="none" x="400" y="623">«extend»</text></g></g><g transform="translate(-6,-6) scale(1,1)"><path fill="#C0C0C0" stroke="none" d="M 783 543 C 783 520.908608 833.1441024 503 895 503 C 956.8558976 503 1007 520.908608 1007 543 C 1007 565.091392 956.8558976 583 895 583 C 833.1441024 583 783 565.091392 783 543 Z" opacity="0.2"/></g><g transform="translate(-6,-6) scale(1,1)"><path fill="#ffffff" stroke="none" d="M 776 536 C 776 513.908608 826.1441024 496 888 496 C 949.8558976 496 1000 513.908608 1000 536 C 1000 558.091392 949.8558976 576 888 576 C 826.1441024 576 776 558.091392 776 536 Z"/></g><g transform="translate(-6,-6) scale(1,1)"><path fill="none" stroke="#000000" d="M 776 536 C 776 513.908608 826.1441024 496 888 496 C 949.8558976 496 1000 513.908608 1000 536 C 1000 558.091392 949.8558976 576 888 576 C 826.1441024 576 776 558.091392 776 536 Z" stroke-miterlimit="10"/></g><g transform="translate(-6,-6) scale(1,1)"><g><path fill="none" stroke="none"/><text fill="#000000" stroke="none" font-family="Arial" font-size="13px" font-style="normal" font-weight="bold" text-decoration="none" x="825.5" y="530">Obținerea unei alinieri</text><text fill="#000000" stroke="none" font-family="Arial" font-size="13px" font-style="normal" font-weight="bold" text-decoration="none" x="826.5" y="543">pe baza unei euristici</text><text fill="#000000" stroke="none" font-family="Arial" font-size="13px" font-style="normal" font-weight="bold" text-decoration="none" x="824.5" y="556">de tip String Matching</text></g></g><g transform="translate(-6,-6) scale(1,1)"><path fill="none" stroke="#000000" d="M 558 421 L 775 497" stroke-miterlimit="10" stroke-dasharray="3"/></g><g transform="translate(-6,-6) scale(1,1)"><path fill="none" stroke="#000000" d="M 764.0171322399499 497.6136902844697 L 775 497 L 766.7999951682966 489.6678842916903" stroke-miterlimit="10"/></g><g transform="translate(-6,-6) scale(1,1)"><g><path fill="none" stroke="none"/><text fill="#000000" stroke="none" font-family="Arial" font-size="13px" font-style="normal" font-weight="normal" text-decoration="none" x="664" y="456">«extend»</text></g></g><g transform="translate(-6,-6) scale(1,1)"><path fill="#C0C0C0" stroke="none" d="M 847 370.5 C 847 350.8938896 910.1278432 335 988 335 C 1065.8721568 335 1129 350.8938896 1129 370.5 C 1129 390.1061104 1065.8721568 406 988 406 C 910.1278432 406 847 390.1061104 847 370.5 Z" opacity="0.2"/></g><g transform="translate(-6,-6) scale(1,1)"><path fill="#ffffff" stroke="none" d="M 840 363.5 C 840 343.8938896 903.1278432 328 981 328 C 1058.8721568 328 1122 343.8938896 1122 363.5 C 1122 383.1061104 1058.8721568 399 981 399 C 903.1278432 399 840 383.1061104 840 363.5 Z"/></g><g transform="translate(-6,-6) scale(1,1)"><path fill="none" stroke="#000000" d="M 840 363.5 C 840 343.8938896 903.1278432 328 981 328 C 1058.8721568 328 1122 343.8938896 1122 363.5 C 1122 383.1061104 1058.8721568 399 981 399 C 903.1278432 399 840 383.1061104 840 363.5 Z" stroke-miterlimit="10"/></g><g transform="translate(-6,-6) scale(1,1)"><g><path fill="none" stroke="none"/><text fill="#000000" stroke="none" font-family="Arial" font-size="13px" font-style="normal" font-weight="bold" text-decoration="none" x="895" y="364">Împărțirea unui text pe blocuri</text><text fill="#000000" stroke="none" font-family="Arial" font-size="13px" font-style="normal" font-weight="bold" text-decoration="none" x="905" y="377">(e.g. fraze sau alte bucăți)</text></g></g><g transform="translate(-6,-6) scale(1,1)"><path fill="none" stroke="#000000" d="M 910 495 L 961 400" stroke-miterlimit="10" stroke-dasharray="3"/></g><g transform="translate(-6,-6) scale(1,1)"><path fill="none" stroke="#000000" d="M 959.9019855767676 410.9450611842225 L 961 400 L 952.4842595716264 406.96291353935715" stroke-miterlimit="10"/></g><g transform="translate(-6,-6) scale(1,1)"><g><path fill="none" stroke="none"/><text fill="#000000" stroke="none" font-family="Arial" font-size="13px" font-style="normal" font-weight="normal" text-decoration="none" x="881" y="439">«include»</text></g></g><g transform="translate(-6,-6) scale(1,1)"><path fill="#C0C0C0" stroke="none" d="M 871 713 C 871 698.6405952 936.8141344000001 687 1018 687 C 1099.1858656 687 1165 698.6405952 1165 713 C 1165 727.3594048 1099.1858656 739 1018 739 C 936.8141344000001 739 871 727.3594048 871 713 Z" opacity="0.2"/></g><g transform="translate(-6,-6) scale(1,1)"><path fill="#ffffff" stroke="none" d="M 864 706 C 864 691.6405952 929.8141344000001 680 1011 680 C 1092.1858656 680 1158 691.6405952 1158 706 C 1158 720.3594048 1092.1858656 732 1011 732 C 929.8141344000001 732 864 720.3594048 864 706 Z"/></g><g transform="translate(-6,-6) scale(1,1)"><path fill="none" stroke="#000000" d="M 864 706 C 864 691.6405952 929.8141344000001 680 1011 680 C 1092.1858656 680 1158 691.6405952 1158 706 C 1158 720.3594048 1092.1858656 732 1011 732 C 929.8141344000001 732 864 720.3594048 864 706 Z" stroke-miterlimit="10"/></g><g transform="translate(-6,-6) scale(1,1)"><g><path fill="none" stroke="none"/><text fill="#000000" stroke="none" font-family="Arial" font-size="13px" font-style="normal" font-weight="bold" text-decoration="none" x="927" y="706.5">Căutarea unui bloc din primul</text><text fill="#000000" stroke="none" font-family="Arial" font-size="13px" font-style="normal" font-weight="bold" text-decoration="none" x="934" y="719.5">text în cel de-al doilea text</text></g></g><g transform="translate(-6,-6) scale(1,1)"><path fill="none" stroke="#000000" d="M 918 577 L 991 679" stroke-miterlimit="10" stroke-dasharray="3"/></g><g transform="translate(-6,-6) scale(1,1)"><path fill="none" stroke="#000000" d="M 981.6622470954096 673.1856753880769 L 991 679 L 988.5085599612304 668.2858632390091" stroke-miterlimit="10"/></g><g transform="translate(-6,-6) scale(1,1)"><g><path fill="none" stroke="none"/><text fill="#000000" stroke="none" font-family="Arial" font-size="13px" font-style="normal" font-weight="normal" text-decoration="none" x="951" y="617">«include»</text></g></g><g transform="translate(-6,-6) scale(1,1)"><path fill="#C0C0C0" stroke="none" d="M 599 819 C 599 803.5360256 695.258768 791 814 791 C 932.741232 791 1029 803.5360256 1029 819 C 1029 834.4639744 932.741232 847 814 847 C 695.258768 847 599 834.4639744 599 819 Z" opacity="0.2"/></g><g transform="translate(-6,-6) scale(1,1)"><path fill="#ffffff" stroke="none" d="M 592 812 C 592 796.5360256 688.258768 784 807 784 C 925.741232 784 1022 796.5360256 1022 812 C 1022 827.4639744 925.741232 840 807 840 C 688.258768 840 592 827.4639744 592 812 Z"/></g><g transform="translate(-6,-6) scale(1,1)"><path fill="none" stroke="#000000" d="M 592 812 C 592 796.5360256 688.258768 784 807 784 C 925.741232 784 1022 796.5360256 1022 812 C 1022 827.4639744 925.741232 840 807 840 C 688.258768 840 592 827.4639744 592 812 Z" stroke-miterlimit="10"/></g><g transform="translate(-6,-6) scale(1,1)"><g><path fill="none" stroke="none"/><text fill="#000000" stroke="none" font-family="Arial" font-size="13px" font-style="normal" font-weight="bold" text-decoration="none" x="675.5" y="812.5">Dacă am găsit o potrivire, algoritmul a găsit o</text><text fill="#000000" stroke="none" font-family="Arial" font-size="13px" font-style="normal" font-weight="bold" text-decoration="none" x="684" y="825.5">aliniere (la începutul celor două fragmente)</text></g></g><g transform="translate(-6,-6) scale(1,1)"><path fill="none" stroke="#000000" d="M 959 733 L 863 783" stroke-miterlimit="10" stroke-dasharray="3"/></g><g transform="translate(-6,-6) scale(1,1)"><path fill="none" stroke="#000000" d="M 870.0688983258274 774.5720301104527 L 863 783 L 873.9579406022457 782.0389912811759" stroke-miterlimit="10"/></g><g transform="translate(-6,-6) scale(1,1)"><g><path fill="none" stroke="none"/><text fill="#000000" stroke="none" font-family="Arial" font-size="13px" font-style="normal" font-weight="normal" text-decoration="none" x="848" y="756">«extend»</text></g></g><g transform="translate(-6,-6) scale(1,1)"><path fill="#C0C0C0" stroke="none" d="M 999 873 C 999 858.6405952 1092.1247616 847 1207 847 C 1321.8752384 847 1415 858.6405952 1415 873 C 1415 887.3594048 1321.8752384 899 1207 899 C 1092.1247616 899 999 887.3594048 999 873 Z" opacity="0.2"/></g><g transform="translate(-6,-6) scale(1,1)"><path fill="#ffffff" stroke="none" d="M 992 866 C 992 851.6405952 1085.1247616 840 1200 840 C 1314.8752384 840 1408 851.6405952 1408 866 C 1408 880.3594048 1314.8752384 892 1200 892 C 1085.1247616 892 992 880.3594048 992 866 Z"/></g><g transform="translate(-6,-6) scale(1,1)"><path fill="none" stroke="#000000" d="M 992 866 C 992 851.6405952 1085.1247616 840 1200 840 C 1314.8752384 840 1408 851.6405952 1408 866 C 1408 880.3594048 1314.8752384 892 1200 892 C 1085.1247616 892 992 880.3594048 992 866 Z" stroke-miterlimit="10"/></g><g transform="translate(-6,-6) scale(1,1)"><g><path fill="none" stroke="none"/><text fill="#000000" stroke="none" font-family="Arial" font-size="13px" font-style="normal" font-weight="bold" text-decoration="none" x="1076.5" y="866.5">Dacă nu am găsit nicio potrivire, algoritmul</text><text fill="#000000" stroke="none" font-family="Arial" font-size="13px" font-style="normal" font-weight="bold" text-decoration="none" x="1095" y="879.5">returnează o aliniere cu scor negativ</text></g></g><g transform="translate(-6,-6) scale(1,1)"><path fill="none" stroke="#000000" d="M 1043 733 L 1168 839" stroke-miterlimit="10" stroke-dasharray="3"/></g><g transform="translate(-6,-6) scale(1,1)"><path fill="none" stroke="#000000" d="M 1157.5264560552503 835.6377273701563 L 1168 839 L 1162.9715718303726 829.2166002768518" stroke-miterlimit="10"/></g><g transform="translate(-6,-6) scale(1,1)"><g><path fill="none" stroke="none"/><text fill="#000000" stroke="none" font-family="Arial" font-size="13px" font-style="normal" font-weight="normal" text-decoration="none" x="1098" y="781">«extend»</text></g></g></g></svg>