<?xml version="1.0" encoding="utf-8" ?>
<!DOCTYPE svg PUBLIC "-//W3C//DTD SVG 1.1//EN" "http://www.w3.org/Graphics/SVG/1.1/DTD/svg11.dtd">
<svg height="396" version="1.1" width="884" xmlns="http://www.w3.org/2000/svg">
<ellipse cx="22" cy="38" fill="#000000" rx="8.0" ry="8.0" stroke="#000000" stroke-width="1"/>
<rect fill="#00ff" height="48" rx="16" ry="16" stroke="#00ff" stroke-width="1" width="190" x="70" y="110"/>
<rect fill="#ffffff" height="48" rx="16" ry="16" stroke="#000000" stroke-width="1" width="190" x="70" y="110"/>
<rect fill="#ffffff" height="46" rx="16" ry="16" stroke="#ffffff" stroke-width="1" width="188" x="71" y="111"/>
<text font-family="Dialog" font-size="12" x="74" y="124">
Apeleaza algoritmi pentru aliniere</text>
<line fill="#000000" stroke="#000000" stroke-width="1" x1="70" x2="259" y1="134" y2="134"/>
<polyline fill="none" points="27,45 70,110" stroke="#000000" stroke-width="1"/>
<line fill="#000000" stroke="#000000" stroke-width="1" x1="57" x2="70" y1="103" y2="110"/>
<line fill="#000000" stroke="#000000" stroke-width="1" x1="69" x2="70" y1="96" y2="110"/>
<text font-family="Dialog" font-size="12" x="54" y="86">
Inserarea celor doua texte</text>
<rect fill="#00ff" height="46" rx="16" ry="16" stroke="#00ff" stroke-width="1" width="84" x="590" y="334"/>
<rect fill="#ffffff" height="46" rx="16" ry="16" stroke="#000000" stroke-width="1" width="84" x="590" y="334"/>
<rect fill="#ffffff" height="44" rx="16" ry="16" stroke="#ffffff" stroke-width="1" width="82" x="591" y="335"/>
<text font-family="Dialog" font-size="12" x="596" y="348">
Texte aliniate</text>
<line fill="#000000" stroke="#000000" stroke-width="1" x1="590" x2="673" y1="358" y2="358"/>
<ellipse cx="862" cy="374" fill="#000000" rx="8.0" ry="8.0" stroke="#000000" stroke-width="1"/>
<rect fill="#00ff" height="48" rx="16" ry="16" stroke="#00ff" stroke-width="1" width="132" x="342" y="14"/>
<rect fill="#ffffff" height="48" rx="16" ry="16" stroke="#000000" stroke-width="1" width="132" x="342" y="14"/>
<rect fill="#ffffff" height="46" rx="16" ry="16" stroke="#ffffff" stroke-width="1" width="130" x="343" y="15"/>
<text font-family="Dialog" font-size="12" x="348" y="28">
aplicare algoritm KMP</text>
<line fill="#000000" stroke="#000000" stroke-width="1" x1="342" x2="473" y1="38" y2="38"/>
<polyline fill="none" points="259,110 342,61" stroke="#000000" stroke-width="1"/>
<line fill="#000000" stroke="#000000" stroke-width="1" x1="335" x2="342" y1="73" y2="61"/>
<line fill="#000000" stroke="#000000" stroke-width="1" x1="328" x2="342" y1="61" y2="61"/>
<rect fill="#00ff" height="48" rx="16" ry="16" stroke="#00ff" stroke-width="1" width="224" x="302" y="110"/>
<rect fill="#ffffff" height="48" rx="16" ry="16" stroke="#000000" stroke-width="1" width="224" x="302" y="110"/>
<rect fill="#ffffff" height="46" rx="16" ry="16" stroke="#ffffff" stroke-width="1" width="222" x="303" y="111"/>
<text font-family="Dialog" font-size="12" x="308" y="124">
aplicare algoritm  Needleman-Wunsch</text>
<line fill="#000000" stroke="#000000" stroke-width="1" x1="302" x2="525" y1="134" y2="134"/>
<polyline fill="none" points="259,126 302,126" stroke="#000000" stroke-width="1"/>
<line fill="#000000" stroke="#000000" stroke-width="1" x1="290" x2="302" y1="133" y2="126"/>
<line fill="#000000" stroke="#000000" stroke-width="1" x1="290" x2="302" y1="119" y2="126"/>
<rect fill="#00ff" height="48" rx="16" ry="16" stroke="#00ff" stroke-width="1" width="237" x="294" y="198"/>
<rect fill="#ffffff" height="48" rx="16" ry="16" stroke="#000000" stroke-width="1" width="237" x="294" y="198"/>
<rect fill="#ffffff" height="46" rx="16" ry="16" stroke="#ffffff" stroke-width="1" width="235" x="295" y="199"/>
<text font-family="Dialog" font-size="12" x="300" y="212">
aplicare algoritm Smith-Waterman-Gotoh</text>
<line fill="#000000" stroke="#000000" stroke-width="1" x1="294" x2="530" y1="222" y2="222"/>
<polyline fill="none" points="259,157 294,198" stroke="#000000" stroke-width="1"/>
<line fill="#000000" stroke="#000000" stroke-width="1" x1="280" x2="294" y1="193" y2="198"/>
<line fill="#000000" stroke="#000000" stroke-width="1" x1="291" x2="294" y1="184" y2="198"/>
<polyline fill="none" points="673,377 853,377" stroke="#000000" stroke-width="1"/>
<line fill="#000000" stroke="#000000" stroke-width="1" x1="841" x2="853" y1="384" y2="377"/>
<line fill="#000000" stroke="#000000" stroke-width="1" x1="841" x2="853" y1="370" y2="377"/>
<text font-family="Dialog" font-size="12" x="709" y="372">
Transmitere rezultat</text>
<rect fill="#00ff" height="46" rx="16" ry="16" stroke="#00ff" stroke-width="1" width="176" x="574" y="118"/>
<rect fill="#ffffff" height="46" rx="16" ry="16" stroke="#000000" stroke-width="1" width="176" x="574" y="118"/>
<rect fill="#ffffff" height="44" rx="16" ry="16" stroke="#ffffff" stroke-width="1" width="174" x="575" y="119"/>
<text font-family="Dialog" font-size="12" x="580" y="132">
se compara scorurile obtinute</text>
<line fill="#000000" stroke="#000000" stroke-width="1" x1="574" x2="749" y1="142" y2="142"/>
<polyline fill="none" points="473,61 574,118" stroke="#333399" stroke-width="1"/>
<line fill="#333399" stroke="#333399" stroke-width="1" x1="560" x2="574" y1="118" y2="118"/>
<line fill="#333399" stroke="#333399" stroke-width="1" x1="566" x2="574" y1="106" y2="118"/>
<polyline fill="none" points="525,157 574,157" stroke="#333399" stroke-width="1"/>
<line fill="#333399" stroke="#333399" stroke-width="1" x1="562" x2="574" y1="164" y2="157"/>
<line fill="#333399" stroke="#333399" stroke-width="1" x1="562" x2="574" y1="150" y2="157"/>
<polyline fill="none" points="530,198 574,163" stroke="#333399" stroke-width="1"/>
<line fill="#333399" stroke="#333399" stroke-width="1" x1="568" x2="574" y1="175" y2="163"/>
<line fill="#333399" stroke="#333399" stroke-width="1" x1="560" x2="574" y1="164" y2="163"/>
<rect fill="#00ff" height="46" rx="16" ry="16" stroke="#00ff" stroke-width="1" width="214" x="582" y="238"/>
<rect fill="#ffffff" height="46" rx="16" ry="16" stroke="#000000" stroke-width="1" width="214" x="582" y="238"/>
<rect fill="#ffffff" height="44" rx="16" ry="16" stroke="#ffffff" stroke-width="1" width="212" x="583" y="239"/>
<text font-family="Dialog" font-size="12" x="588" y="252">
se aleg textele cu cel mai bun alineat</text>
<line fill="#000000" stroke="#000000" stroke-width="1" x1="582" x2="795" y1="262" y2="262"/>
<polyline fill="none" points="582,163 582,238" stroke="#000000" stroke-width="1"/>
<line fill="#000000" stroke="#000000" stroke-width="1" x1="575" x2="582" y1="226" y2="238"/>
<line fill="#000000" stroke="#000000" stroke-width="1" x1="589" x2="582" y1="226" y2="238"/>
<polyline fill="none" points="646,283 646,334" stroke="#333399" stroke-width="1"/>
<line fill="#333399" stroke="#333399" stroke-width="1" x1="639" x2="646" y1="322" y2="334"/>
<line fill="#333399" stroke="#333399" stroke-width="1" x1="653" x2="646" y1="322" y2="334"/>
</svg>
