<svg version="1.1" xmlns="http://www.w3.org/2000/svg" xmlns:xlink="http://www.w3.org/1999/xlink" width="1205" height="1104"><defs/><g><g transform="translate(-6,-30) scale(1,1)"><path fill="none" stroke="#000000" d="M 324 359 L 500 184" stroke-miterlimit="10" stroke-dasharray="3"/></g><g transform="translate(-6,-30) scale(1,1)"><path fill="none" stroke="#000000" d="M 495.76154595570466 194.15064073418012 L 500 184 L 489.8253735070041 188.18054730005838" stroke-miterlimit="10"/></g><g transform="translate(-6,-30) scale(1,1)"><g><path fill="none" stroke="none"/><text fill="#000000" stroke="none" font-family="Arial" font-size="13px" font-style="normal" font-weight="normal" text-decoration="none" x="405" y="287">«include»</text></g></g><g transform="translate(-6,-30) scale(1,1)"><path fill="#ffffff" stroke="none" d="M 44.730909090909094 336.65 C 44.730909090909094 328.00674288 51.56711318109091 321 60 321 C 68.43288681890908 321 75.2690909090909 328.00674288 75.2690909090909 336.65 C 75.2690909090909 345.29325711999996 68.43288681890908 352.3 60 352.3 C 51.56711318109091 352.3 44.730909090909094 345.29325711999996 44.730909090909094 336.65 Z"/></g><g transform="translate(-6,-30) scale(1,1)"><path fill="none" stroke="#000000" d="M 44.730909090909094 336.65 C 44.730909090909094 328.00674288 51.56711318109091 321 60 321 C 68.43288681890908 321 75.2690909090909 328.00674288 75.2690909090909 336.65 C 75.2690909090909 345.29325711999996 68.43288681890908 352.3 60 352.3 C 51.56711318109091 352.3 44.730909090909094 345.29325711999996 44.730909090909094 336.65 Z" stroke-miterlimit="10"/></g><g transform="translate(-6,-30) scale(1,1)"><path fill="none" stroke="#000000" d="M 60 352.3 L 60 382.7" stroke-miterlimit="10"/></g><g transform="translate(-6,-30) scale(1,1)"><path fill="none" stroke="#000000" d="M 43.832727272727276 363.7 L 76.16727272727273 363.7" stroke-miterlimit="10"/></g><g transform="translate(-6,-30) scale(1,1)"><path fill="none" stroke="#000000" d="M 60 382.7 L 37.54545454545455 414" stroke-miterlimit="10"/></g><g transform="translate(-6,-30) scale(1,1)"><path fill="none" stroke="#000000" d="M 60 382.7 L 82.45454545454545 414" stroke-miterlimit="10"/></g><g transform="translate(-6,-30) scale(1,1)"><g><path fill="none" stroke="none"/><text fill="#000000" stroke="none" font-family="Arial" font-size="13px" font-style="normal" font-weight="bold" text-decoration="none" x="34.5" y="434.5">Utilizator</text></g></g><g transform="translate(-6,-30) scale(1,1)"><path fill="#C0C0C0" stroke="none" d="M 191 393 C 191 378.6405952 241.8156752 367 304.5 367 C 367.1843248 367 418 378.6405952 418 393 C 418 407.3594048 367.1843248 419 304.5 419 C 241.8156752 419 191 407.3594048 191 393 Z" opacity="0.2"/></g><g transform="translate(-6,-30) scale(1,1)"><path fill="#ffffff" stroke="none" d="M 184 386 C 184 371.6405952 234.8156752 360 297.5 360 C 360.1843248 360 411 371.6405952 411 386 C 411 400.3594048 360.1843248 412 297.5 412 C 234.8156752 412 184 400.3594048 184 386 Z"/></g><g transform="translate(-6,-30) scale(1,1)"><path fill="none" stroke="#000000" d="M 184 386 C 184 371.6405952 234.8156752 360 297.5 360 C 360.1843248 360 411 371.6405952 411 386 C 411 400.3594048 360.1843248 412 297.5 412 C 234.8156752 412 184 400.3594048 184 386 Z" stroke-miterlimit="10"/></g><g transform="translate(-6,-30) scale(1,1)"><g><path fill="none" stroke="none"/><text fill="#000000" stroke="none" font-family="Arial" font-size="13px" font-style="normal" font-weight="bold" text-decoration="none" x="242.5" y="386.5">Eliminarea spațiilor</text><text fill="#000000" stroke="none" font-family="Arial" font-size="13px" font-style="normal" font-weight="bold" text-decoration="none" x="265.5" y="399.5">redundante</text></g></g><g transform="translate(-6,-30) scale(1,1)"><path fill="none" stroke="#000000" d="M 105 381 L 183 383" stroke-miterlimit="10"/></g><g transform="translate(-6,-30) scale(1,1)"><path fill="#C0C0C0" stroke="none" d="M 447 154.5 C 447 134.8938896 490.4283744 119 544 119 C 597.5716256000001 119 641 134.8938896 641 154.5 C 641 174.1061104 597.5716256000001 190 544 190 C 490.4283744 190 447 174.1061104 447 154.5 Z" opacity="0.2"/></g><g transform="translate(-6,-30) scale(1,1)"><path fill="#ffffff" stroke="none" d="M 440 147.5 C 440 127.8938896 483.4283744 112 537 112 C 590.5716256000001 112 634 127.8938896 634 147.5 C 634 167.1061104 590.5716256000001 183 537 183 C 483.4283744 183 440 167.1061104 440 147.5 Z"/></g><g transform="translate(-6,-30) scale(1,1)"><path fill="none" stroke="#000000" d="M 440 147.5 C 440 127.8938896 483.4283744 112 537 112 C 590.5716256000001 112 634 127.8938896 634 147.5 C 634 167.1061104 590.5716256000001 183 537 183 C 483.4283744 183 440 167.1061104 440 147.5 Z" stroke-miterlimit="10"/></g><g transform="translate(-6,-30) scale(1,1)"><g><path fill="none" stroke="none"/><text fill="#000000" stroke="none" font-family="Arial" font-size="13px" font-style="normal" font-weight="bold" text-decoration="none" x="482" y="148">Eliminarea spațiilor</text><text fill="#000000" stroke="none" font-family="Arial" font-size="13px" font-style="normal" font-weight="bold" text-decoration="none" x="491.5" y="161">din jurul textului</text></g></g><g transform="translate(-6,-30) scale(1,1)"><path fill="#C0C0C0" stroke="none" d="M 567 394.5 C 567 374.8938896 624.5314032 359 695.5 359 C 766.4685968 359 824 374.8938896 824 394.5 C 824 414.1061104 766.4685968 430 695.5 430 C 624.5314032 430 567 414.1061104 567 394.5 Z" opacity="0.2"/></g><g transform="translate(-6,-30) scale(1,1)"><path fill="#ffffff" stroke="none" d="M 560 387.5 C 560 367.8938896 617.5314032 352 688.5 352 C 759.4685968 352 817 367.8938896 817 387.5 C 817 407.1061104 759.4685968 423 688.5 423 C 617.5314032 423 560 407.1061104 560 387.5 Z"/></g><g transform="translate(-6,-30) scale(1,1)"><path fill="none" stroke="#000000" d="M 560 387.5 C 560 367.8938896 617.5314032 352 688.5 352 C 759.4685968 352 817 367.8938896 817 387.5 C 817 407.1061104 759.4685968 423 688.5 423 C 617.5314032 423 560 407.1061104 560 387.5 Z" stroke-miterlimit="10"/></g><g transform="translate(-6,-30) scale(1,1)"><g><path fill="none" stroke="none"/><text fill="#000000" stroke="none" font-family="Arial" font-size="13px" font-style="normal" font-weight="bold" text-decoration="none" x="633.5" y="381.5">Eliminarea spațiilor</text><text fill="#000000" stroke="none" font-family="Arial" font-size="13px" font-style="normal" font-weight="bold" text-decoration="none" x="619.5" y="394.5">redundante din interiorul</text><text fill="#000000" stroke="none" font-family="Arial" font-size="13px" font-style="normal" font-weight="bold" text-decoration="none" x="667.5" y="407.5">textului</text></g></g><g transform="translate(-6,-30) scale(1,1)"><path fill="none" stroke="#000000" d="M 412 386 L 559 387" stroke-miterlimit="10" stroke-dasharray="3"/></g><g transform="translate(-6,-30) scale(1,1)"><path fill="none" stroke="#000000" d="M 548.8089247707034 391.14028811446946 L 559 387 L 548.8661957959747 382.7214473995896" stroke-miterlimit="10"/></g><g transform="translate(-6,-30) scale(1,1)"><g><path fill="none" stroke="none"/><text fill="#000000" stroke="none" font-family="Arial" font-size="13px" font-style="normal" font-weight="normal" text-decoration="none" x="456" y="381">«include»</text></g></g><g transform="translate(-6,-30) scale(1,1)"><path fill="none" stroke="#000000" d="M 285 413 L 219 567" stroke-miterlimit="10" stroke-dasharray="3"/></g><g transform="translate(-6,-30) scale(1,1)"><path fill="none" stroke="#000000" d="M 219.1341164273886 556.0008176311189 L 219 567 L 226.8724310758183 559.3172381947317" stroke-miterlimit="10"/></g><g transform="translate(-6,-30) scale(1,1)"><g><path fill="none" stroke="none"/><text fill="#000000" stroke="none" font-family="Arial" font-size="13px" font-style="normal" font-weight="normal" text-decoration="none" x="249" y="517">«include»</text></g></g><g transform="translate(-6,-30) scale(1,1)"><path fill="#C0C0C0" stroke="none" d="M 103 628.5 C 103 598.9527632 147.77152 575 203 575 C 258.22848 575 303 598.9527632 303 628.5 C 303 658.0472368 258.22848 682 203 682 C 147.77152 682 103 658.0472368 103 628.5 Z" opacity="0.2"/></g><g transform="translate(-6,-30) scale(1,1)"><path fill="#ffffff" stroke="none" d="M 96 621.5 C 96 591.9527632 140.77152 568 196 568 C 251.22848 568 296 591.9527632 296 621.5 C 296 651.0472368 251.22848 675 196 675 C 140.77152 675 96 651.0472368 96 621.5 Z"/></g><g transform="translate(-6,-30) scale(1,1)"><path fill="none" stroke="#000000" d="M 96 621.5 C 96 591.9527632 140.77152 568 196 568 C 251.22848 568 296 591.9527632 296 621.5 C 296 651.0472368 251.22848 675 196 675 C 140.77152 675 96 651.0472368 96 621.5 Z" stroke-miterlimit="10"/></g><g transform="translate(-6,-30) scale(1,1)"><g><path fill="none" stroke="none"/><text fill="#000000" stroke="none" font-family="Arial" font-size="13px" font-style="normal" font-weight="bold" text-decoration="none" x="138.5" y="622">Aducerea textului la</text><text fill="#000000" stroke="none" font-family="Arial" font-size="13px" font-style="normal" font-weight="bold" text-decoration="none" x="157" y="635">un anumit stil</text></g></g><g transform="translate(-6,-30) scale(1,1)"><path fill="#C0C0C0" stroke="none" d="M 63 73 C 63 58.6405952 122.0984064 47 195 47 C 267.9015936 47 327 58.6405952 327 73 C 327 87.3594048 267.9015936 99 195 99 C 122.0984064 99 63 87.3594048 63 73 Z" opacity="0.2"/></g><g transform="translate(-6,-30) scale(1,1)"><path fill="#ffffff" stroke="none" d="M 56 66 C 56 51.6405952 115.0984064 40 188 40 C 260.9015936 40 320 51.6405952 320 66 C 320 80.3594048 260.9015936 92 188 92 C 115.0984064 92 56 80.3594048 56 66 Z"/></g><g transform="translate(-6,-30) scale(1,1)"><path fill="none" stroke="#000000" d="M 56 66 C 56 51.6405952 115.0984064 40 188 40 C 260.9015936 40 320 51.6405952 320 66 C 320 80.3594048 260.9015936 92 188 92 C 115.0984064 92 56 80.3594048 56 66 Z" stroke-miterlimit="10"/></g><g transform="translate(-6,-30) scale(1,1)"><g><path fill="none" stroke="none"/><text fill="#000000" stroke="none" font-family="Arial" font-size="13px" font-style="normal" font-weight="bold" text-decoration="none" x="116" y="66.5">Ștergerea caracterelor \r,</text><text fill="#000000" stroke="none" font-family="Arial" font-size="13px" font-style="normal" font-weight="bold" text-decoration="none" x="134" y="79.5">specifice Windows</text></g></g><g transform="translate(-6,-30) scale(1,1)"><path fill="#C0C0C0" stroke="none" d="M 63 169 C 63 154.6405952 111.35324159999999 143 171 143 C 230.6467584 143 279 154.6405952 279 169 C 279 183.3594048 230.6467584 195 171 195 C 111.35324159999999 195 63 183.3594048 63 169 Z" opacity="0.2"/></g><g transform="translate(-6,-30) scale(1,1)"><path fill="#ffffff" stroke="none" d="M 56 162 C 56 147.6405952 104.35324159999999 136 164 136 C 223.6467584 136 272 147.6405952 272 162 C 272 176.3594048 223.6467584 188 164 188 C 104.35324159999999 188 56 176.3594048 56 162 Z"/></g><g transform="translate(-6,-30) scale(1,1)"><path fill="none" stroke="#000000" d="M 56 162 C 56 147.6405952 104.35324159999999 136 164 136 C 223.6467584 136 272 147.6405952 272 162 C 272 176.3594048 223.6467584 188 164 188 C 104.35324159999999 188 56 176.3594048 56 162 Z" stroke-miterlimit="10"/></g><g transform="translate(-6,-30) scale(1,1)"><g><path fill="none" stroke="none"/><text fill="#000000" stroke="none" font-family="Arial" font-size="13px" font-style="normal" font-weight="bold" text-decoration="none" x="100" y="162.5">Înlocuirea caracterelor</text><text fill="#000000" stroke="none" font-family="Arial" font-size="13px" font-style="normal" font-weight="bold" text-decoration="none" x="103" y="175.5">\t cu un singur spațiu</text></g></g><g transform="translate(-6,-30) scale(1,1)"><path fill="#C0C0C0" stroke="none" d="M 23 266.5 C 23 246.8938896 96.4252928 231 187 231 C 277.57470720000003 231 351 246.8938896 351 266.5 C 351 286.1061104 277.57470720000003 302 187 302 C 96.4252928 302 23 286.1061104 23 266.5 Z" opacity="0.2"/></g><g transform="translate(-6,-30) scale(1,1)"><path fill="#ffffff" stroke="none" d="M 16 259.5 C 16 239.8938896 89.4252928 224 180 224 C 270.57470720000003 224 344 239.8938896 344 259.5 C 344 279.1061104 270.57470720000003 295 180 295 C 89.4252928 295 16 279.1061104 16 259.5 Z"/></g><g transform="translate(-6,-30) scale(1,1)"><path fill="none" stroke="#000000" d="M 16 259.5 C 16 239.8938896 89.4252928 224 180 224 C 270.57470720000003 224 344 239.8938896 344 259.5 C 344 279.1061104 270.57470720000003 295 180 295 C 89.4252928 295 16 279.1061104 16 259.5 Z" stroke-miterlimit="10"/></g><g transform="translate(-6,-30) scale(1,1)"><g><path fill="none" stroke="none"/><text fill="#000000" stroke="none" font-family="Arial" font-size="13px" font-style="normal" font-weight="bold" text-decoration="none" x="84" y="253.5">Ștergerea oricărui caracter spațiu</text><text fill="#000000" stroke="none" font-family="Arial" font-size="13px" font-style="normal" font-weight="bold" text-decoration="none" x="79.5" y="266.5">(i.e. \n, ' ', Unicode) de la începutul</text><text fill="#000000" stroke="none" font-family="Arial" font-size="13px" font-style="normal" font-weight="bold" text-decoration="none" x="105.5" y="279.5">sau de la sfârșitul textului</text></g></g><g transform="translate(-6,-30) scale(1,1)"><path fill="none" stroke="#000000" d="M 439 178 L 295 223" stroke-miterlimit="10" stroke-dasharray="3"/></g><g transform="translate(-6,-30) scale(1,1)"><path fill="none" stroke="#000000" d="M 303.4444757951009 215.9508278112991 L 295 223 L 305.95566355466354 223.9866286418995" stroke-miterlimit="10"/></g><g transform="translate(-6,-30) scale(1,1)"><g><path fill="none" stroke="none"/><text fill="#000000" stroke="none" font-family="Arial" font-size="13px" font-style="normal" font-weight="normal" text-decoration="none" x="336" y="221">«include»</text></g></g><g transform="translate(-6,-30) scale(1,1)"><path fill="none" stroke="#000000" d="M 439 151 L 273 158" stroke-miterlimit="10" stroke-dasharray="3"/></g><g transform="translate(-6,-30) scale(1,1)"><path fill="none" stroke="#000000" d="M 282.97629909915116 153.3660539187129 L 273 158 L 283.33100344188597 161.77761404642408" stroke-miterlimit="10"/></g><g transform="translate(-6,-30) scale(1,1)"><g><path fill="none" stroke="none"/><text fill="#000000" stroke="none" font-family="Arial" font-size="13px" font-style="normal" font-weight="normal" text-decoration="none" x="320" y="173">«include»</text></g></g><g transform="translate(-6,-30) scale(1,1)"><path fill="none" stroke="#000000" d="M 439 124 L 304 93" stroke-miterlimit="10" stroke-dasharray="3"/></g><g transform="translate(-6,-30) scale(1,1)"><path fill="none" stroke="#000000" d="M 314.84699868405653 91.17171677574962 L 304 93 L 312.962777790815 99.3771948592209" stroke-miterlimit="10"/></g><g transform="translate(-6,-30) scale(1,1)"><g><path fill="none" stroke="none"/><text fill="#000000" stroke="none" font-family="Arial" font-size="13px" font-style="normal" font-weight="normal" text-decoration="none" x="344" y="101">«include»</text></g></g><g transform="translate(-6,-30) scale(1,1)"><path fill="#C0C0C0" stroke="none" d="M 727 163.5 C 727 138.9233264 801.5445808 119 893.5 119 C 985.4554192 119 1060 138.9233264 1060 163.5 C 1060 188.0766736 985.4554192 208 893.5 208 C 801.5445808 208 727 188.0766736 727 163.5 Z" opacity="0.2"/></g><g transform="translate(-6,-30) scale(1,1)"><path fill="#ffffff" stroke="none" d="M 720 156.5 C 720 131.9233264 794.5445808 112 886.5 112 C 978.4554192 112 1053 131.9233264 1053 156.5 C 1053 181.0766736 978.4554192 201 886.5 201 C 794.5445808 201 720 181.0766736 720 156.5 Z"/></g><g transform="translate(-6,-30) scale(1,1)"><path fill="none" stroke="#000000" d="M 720 156.5 C 720 131.9233264 794.5445808 112 886.5 112 C 978.4554192 112 1053 131.9233264 1053 156.5 C 1053 181.0766736 978.4554192 201 886.5 201 C 794.5445808 201 720 181.0766736 720 156.5 Z" stroke-miterlimit="10"/></g><g transform="translate(-6,-30) scale(1,1)"><g><path fill="none" stroke="none"/><text fill="#000000" stroke="none" font-family="Arial" font-size="13px" font-style="normal" font-weight="bold" text-decoration="none" x="789" y="144">Unul sau mai multe newline-uri ce</text><text fill="#000000" stroke="none" font-family="Arial" font-size="13px" font-style="normal" font-weight="bold" text-decoration="none" x="788" y="157">urmează după un caracter de final</text><text fill="#000000" stroke="none" font-family="Arial" font-size="13px" font-style="normal" font-weight="bold" text-decoration="none" x="784.5" y="170">de frază ([.!?]) vor fi înlocuite cu un</text><text fill="#000000" stroke="none" font-family="Arial" font-size="13px" font-style="normal" font-weight="bold" text-decoration="none" x="820" y="183">singur caracter newline</text></g></g><g transform="translate(-6,-30) scale(1,1)"><path fill="none" stroke="#000000" d="M 719 351 L 847 202" stroke-miterlimit="10" stroke-dasharray="3"/></g><g transform="translate(-6,-30) scale(1,1)"><path fill="none" stroke="#000000" d="M 843.5707783464853 212.45181509839637 L 847 202 L 837.184624782824 206.96572344639202" stroke-miterlimit="10"/></g><g transform="translate(-6,-30) scale(1,1)"><g><path fill="none" stroke="none"/><text fill="#000000" stroke="none" font-family="Arial" font-size="13px" font-style="normal" font-weight="normal" text-decoration="none" x="732" y="265">«include»</text></g></g><g transform="translate(-6,-30) scale(1,1)"><path fill="#C0C0C0" stroke="none" d="M 911 275.5 C 911 250.9233264 977.4857072 231 1059.5 231 C 1141.5142928 231 1208 250.9233264 1208 275.5 C 1208 300.0766736 1141.5142928 320 1059.5 320 C 977.4857072 320 911 300.0766736 911 275.5 Z" opacity="0.2"/></g><g transform="translate(-6,-30) scale(1,1)"><path fill="#ffffff" stroke="none" d="M 904 268.5 C 904 243.9233264 970.4857072 224 1052.5 224 C 1134.5142928 224 1201 243.9233264 1201 268.5 C 1201 293.0766736 1134.5142928 313 1052.5 313 C 970.4857072 313 904 293.0766736 904 268.5 Z"/></g><g transform="translate(-6,-30) scale(1,1)"><path fill="none" stroke="#000000" d="M 904 268.5 C 904 243.9233264 970.4857072 224 1052.5 224 C 1134.5142928 224 1201 243.9233264 1201 268.5 C 1201 293.0766736 1134.5142928 313 1052.5 313 C 970.4857072 313 904 293.0766736 904 268.5 Z" stroke-miterlimit="10"/></g><g transform="translate(-6,-30) scale(1,1)"><g><path fill="none" stroke="none"/><text fill="#000000" stroke="none" font-family="Arial" font-size="13px" font-style="normal" font-weight="bold" text-decoration="none" x="964" y="256">Unul sau mai multe newline-uri</text><text fill="#000000" stroke="none" font-family="Arial" font-size="13px" font-style="normal" font-weight="bold" text-decoration="none" x="972" y="269">ce urmează după oricare alt</text><text fill="#000000" stroke="none" font-family="Arial" font-size="13px" font-style="normal" font-weight="bold" text-decoration="none" x="968" y="282">caracter vor fi înlocuite cu un</text><text fill="#000000" stroke="none" font-family="Arial" font-size="13px" font-style="normal" font-weight="bold" text-decoration="none" x="1015.5" y="295">singur spațiu</text></g></g><g transform="translate(-6,-30) scale(1,1)"><path fill="none" stroke="#000000" d="M 798 351 L 911 314" stroke-miterlimit="10" stroke-dasharray="3"/></g><g transform="translate(-6,-30) scale(1,1)"><path fill="none" stroke="#000000" d="M 902.6517883215292 321.1629157311423 L 911 314 L 900.0319766248141 313.16186919793114" stroke-miterlimit="10"/></g><g transform="translate(-6,-30) scale(1,1)"><g><path fill="none" stroke="none"/><text fill="#000000" stroke="none" font-family="Arial" font-size="13px" font-style="normal" font-weight="normal" text-decoration="none" x="804" y="321">«include»</text></g></g><g transform="translate(-6,-30) scale(1,1)"><path fill="#C0C0C0" stroke="none" d="M 935 427.5 C 935 402.9233264 990.9644 383 1060 383 C 1129.0356 383 1185 402.9233264 1185 427.5 C 1185 452.0766736 1129.0356 472 1060 472 C 990.9644 472 935 452.0766736 935 427.5 Z" opacity="0.2"/></g><g transform="translate(-6,-30) scale(1,1)"><path fill="#ffffff" stroke="none" d="M 928 420.5 C 928 395.9233264 983.9644 376 1053 376 C 1122.0356 376 1178 395.9233264 1178 420.5 C 1178 445.0766736 1122.0356 465 1053 465 C 983.9644 465 928 445.0766736 928 420.5 Z"/></g><g transform="translate(-6,-30) scale(1,1)"><path fill="none" stroke="#000000" d="M 928 420.5 C 928 395.9233264 983.9644 376 1053 376 C 1122.0356 376 1178 395.9233264 1178 420.5 C 1178 445.0766736 1122.0356 465 1053 465 C 983.9644 465 928 445.0766736 928 420.5 Z" stroke-miterlimit="10"/></g><g transform="translate(-6,-30) scale(1,1)"><g><path fill="none" stroke="none"/><text fill="#000000" stroke="none" font-family="Arial" font-size="13px" font-style="normal" font-weight="bold" text-decoration="none" x="979.5" y="408">Unul sau mai multe spații</text><text fill="#000000" stroke="none" font-family="Arial" font-size="13px" font-style="normal" font-weight="bold" text-decoration="none" x="1001.5" y="421">consecutive vor fi</text><text fill="#000000" stroke="none" font-family="Arial" font-size="13px" font-style="normal" font-weight="bold" text-decoration="none" x="991" y="434">înlocuite cu un singur</text><text fill="#000000" stroke="none" font-family="Arial" font-size="13px" font-style="normal" font-weight="bold" text-decoration="none" x="1035.5" y="447">spațiu</text></g></g><g transform="translate(-6,-30) scale(1,1)"><path fill="none" stroke="#000000" d="M 818 399 L 927 409" stroke-miterlimit="10" stroke-dasharray="3"/></g><g transform="translate(-6,-30) scale(1,1)"><path fill="none" stroke="#000000" d="M 916.4952464239558 412.26345710965927 L 927 409 L 917.2644048593339 403.879630164037" stroke-miterlimit="10"/></g><g transform="translate(-6,-30) scale(1,1)"><g><path fill="none" stroke="none"/><text fill="#000000" stroke="none" font-family="Arial" font-size="13px" font-style="normal" font-weight="normal" text-decoration="none" x="840" y="396">«include»</text></g></g><g transform="translate(-6,-30) scale(1,1)"><path fill="#C0C0C0" stroke="none" d="M 719 547.5 C 719 522.9233264 818.1689168 503 940.5 503 C 1062.8310832 503 1162 522.9233264 1162 547.5 C 1162 572.0766736 1062.8310832 592 940.5 592 C 818.1689168 592 719 572.0766736 719 547.5 Z" opacity="0.2"/></g><g transform="translate(-6,-30) scale(1,1)"><path fill="#ffffff" stroke="none" d="M 712 540.5 C 712 515.9233264 811.1689168 496 933.5 496 C 1055.8310832 496 1155 515.9233264 1155 540.5 C 1155 565.0766736 1055.8310832 585 933.5 585 C 811.1689168 585 712 565.0766736 712 540.5 Z"/></g><g transform="translate(-6,-30) scale(1,1)"><path fill="none" stroke="#000000" d="M 712 540.5 C 712 515.9233264 811.1689168 496 933.5 496 C 1055.8310832 496 1155 515.9233264 1155 540.5 C 1155 565.0766736 1055.8310832 585 933.5 585 C 811.1689168 585 712 565.0766736 712 540.5 Z" stroke-miterlimit="10"/></g><g transform="translate(-6,-30) scale(1,1)"><g><path fill="none" stroke="none"/><text fill="#000000" stroke="none" font-family="Arial" font-size="13px" font-style="normal" font-weight="bold" text-decoration="none" x="794" y="528">Pentru operațiunile incluse în acest scenariu, se</text><text fill="#000000" stroke="none" font-family="Arial" font-size="13px" font-style="normal" font-weight="bold" text-decoration="none" x="817" y="541">va utiliza search and replace cu expresii</text><text fill="#000000" stroke="none" font-family="Arial" font-size="13px" font-style="normal" font-weight="bold" text-decoration="none" x="836" y="554">regulate (e.g. pentru primul punct,</text><text fill="#000000" stroke="none" font-family="Arial" font-size="13px" font-style="normal" font-weight="bold" text-decoration="none" x="834.5" y="567">text.replaceAll("([.!?])\n+", "$1\n"))</text></g></g><g transform="translate(-6,-30) scale(1,1)"><path fill="none" stroke="#000000" d="M 861 495 L 747 424" stroke-miterlimit="10" stroke-dasharray="3"/></g><g transform="translate(-6,-30) scale(1,1)"><path fill="none" stroke="#000000" d="M 757.8518249431202 425.7994152949987 L 747 424 L 753.4010202482652 432.94577776279397" stroke-miterlimit="10"/></g><g transform="translate(-6,-30) scale(1,1)"><g><path fill="none" stroke="none"/><text fill="#000000" stroke="none" font-family="Arial" font-size="13px" font-style="normal" font-weight="normal" text-decoration="none" x="762" y="477">«extend»</text></g></g><g transform="translate(-6,-30) scale(1,1)"><path fill="#C0C0C0" stroke="none" d="M 615 698.5 C 615 678.8938896 700.9613184 663 807 663 C 913.0386816 663 999 678.8938896 999 698.5 C 999 718.1061104 913.0386816 734 807 734 C 700.9613184 734 615 718.1061104 615 698.5 Z" opacity="0.2"/></g><g transform="translate(-6,-30) scale(1,1)"><path fill="#ffffff" stroke="none" d="M 608 691.5 C 608 671.8938896 693.9613184 656 800 656 C 906.0386816 656 992 671.8938896 992 691.5 C 992 711.1061104 906.0386816 727 800 727 C 693.9613184 727 608 711.1061104 608 691.5 Z"/></g><g transform="translate(-6,-30) scale(1,1)"><path fill="none" stroke="#000000" d="M 608 691.5 C 608 671.8938896 693.9613184 656 800 656 C 906.0386816 656 992 671.8938896 992 691.5 C 992 711.1061104 906.0386816 727 800 727 C 693.9613184 727 608 711.1061104 608 691.5 Z" stroke-miterlimit="10"/></g><g transform="translate(-6,-30) scale(1,1)"><g><path fill="none" stroke="none"/><text fill="#000000" stroke="none" font-family="Arial" font-size="13px" font-style="normal" font-weight="bold" text-decoration="none" x="698" y="685.5">Pentru operațiunile incluse în acest</text><text fill="#000000" stroke="none" font-family="Arial" font-size="13px" font-style="normal" font-weight="bold" text-decoration="none" x="679.5" y="698.5">scenariu, se va utiliza search and replace</text><text fill="#000000" stroke="none" font-family="Arial" font-size="13px" font-style="normal" font-weight="bold" text-decoration="none" x="743.5" y="711.5">cu expresii regulate</text></g></g><g transform="translate(-6,-30) scale(1,1)"><path fill="none" stroke="#000000" d="M 607 669 L 297 633" stroke-miterlimit="10" stroke-dasharray="3"/></g><g transform="translate(-6,-30) scale(1,1)"><path fill="none" stroke="#000000" d="M 307.58041750429015 629.990886270858 L 297 633 L 306.60924968830625 638.3537202418306" stroke-miterlimit="10"/></g><g transform="translate(-6,-30) scale(1,1)"><g><path fill="none" stroke="none"/><text fill="#000000" stroke="none" font-family="Arial" font-size="13px" font-style="normal" font-weight="normal" text-decoration="none" x="424" y="675">«extend»</text></g></g><g transform="translate(-6,-30) scale(1,1)"><path fill="#C0C0C0" stroke="none" d="M 623 826.5 C 623 806.8938896 712.54304 791 823 791 C 933.45696 791 1023 806.8938896 1023 826.5 C 1023 846.1061104 933.45696 862 823 862 C 712.54304 862 623 846.1061104 623 826.5 Z" opacity="0.2"/></g><g transform="translate(-6,-30) scale(1,1)"><path fill="#ffffff" stroke="none" d="M 616 819.5 C 616 799.8938896 705.54304 784 816 784 C 926.45696 784 1016 799.8938896 1016 819.5 C 1016 839.1061104 926.45696 855 816 855 C 705.54304 855 616 839.1061104 616 819.5 Z"/></g><g transform="translate(-6,-30) scale(1,1)"><path fill="none" stroke="#000000" d="M 616 819.5 C 616 799.8938896 705.54304 784 816 784 C 926.45696 784 1016 799.8938896 1016 819.5 C 1016 839.1061104 926.45696 855 816 855 C 705.54304 855 616 839.1061104 616 819.5 Z" stroke-miterlimit="10"/></g><g transform="translate(-6,-30) scale(1,1)"><g><path fill="none" stroke="none"/><text fill="#000000" stroke="none" font-family="Arial" font-size="13px" font-style="normal" font-weight="bold" text-decoration="none" x="695.5" y="820">Eliminarea spațiilor dinaintea semnelor de</text><text fill="#000000" stroke="none" font-family="Arial" font-size="13px" font-style="normal" font-weight="bold" text-decoration="none" x="701" y="833">punctuație (e.g. spațiu înainte de punct)</text></g></g><g transform="translate(-6,-30) scale(1,1)"><path fill="none" stroke="#000000" d="M 297 653 L 703 783" stroke-miterlimit="10" stroke-dasharray="3"/></g><g transform="translate(-6,-30) scale(1,1)"><path fill="none" stroke="#000000" d="M 692.0377014191627 783.9099504517121 L 703 783 L 694.6050522011489 775.8919164710477" stroke-miterlimit="10"/></g><g transform="translate(-6,-30) scale(1,1)"><g><path fill="none" stroke="none"/><text fill="#000000" stroke="none" font-family="Arial" font-size="13px" font-style="normal" font-weight="normal" text-decoration="none" x="447" y="744">«include»</text></g></g><g transform="translate(-6,-30) scale(1,1)"><path fill="#C0C0C0" stroke="none" d="M 559 929 C 559 914.6405952 646.7521792 903 755 903 C 863.2478208 903 951 914.6405952 951 929 C 951 943.3594048 863.2478208 955 755 955 C 646.7521792 955 559 943.3594048 559 929 Z" opacity="0.2"/></g><g transform="translate(-6,-30) scale(1,1)"><path fill="#ffffff" stroke="none" d="M 552 922 C 552 907.6405952 639.7521792 896 748 896 C 856.2478208 896 944 907.6405952 944 922 C 944 936.3594048 856.2478208 948 748 948 C 639.7521792 948 552 936.3594048 552 922 Z"/></g><g transform="translate(-6,-30) scale(1,1)"><path fill="none" stroke="#000000" d="M 552 922 C 552 907.6405952 639.7521792 896 748 896 C 856.2478208 896 944 907.6405952 944 922 C 944 936.3594048 856.2478208 948 748 948 C 639.7521792 948 552 936.3594048 552 922 Z" stroke-miterlimit="10"/></g><g transform="translate(-6,-30) scale(1,1)"><g><path fill="none" stroke="none"/><text fill="#000000" stroke="none" font-family="Arial" font-size="13px" font-style="normal" font-weight="bold" text-decoration="none" x="628" y="922.5">Eliminarea spațiilor după linii și paranteze</text><text fill="#000000" stroke="none" font-family="Arial" font-size="13px" font-style="normal" font-weight="bold" text-decoration="none" x="652" y="935.5">deschise (e.g. a ( b) devine a (b))</text></g></g><g transform="translate(-6,-30) scale(1,1)"><path fill="none" stroke="#000000" d="M 297 676 L 698 895" stroke-miterlimit="10" stroke-dasharray="3"/></g><g transform="translate(-6,-30) scale(1,1)"><path fill="none" stroke="#000000" d="M 687.0631112613631 893.8233672116259 L 698 895 L 691.0984568314528 886.4344467842013" stroke-miterlimit="10"/></g><g transform="translate(-6,-30) scale(1,1)"><g><path fill="none" stroke="none"/><text fill="#000000" stroke="none" font-family="Arial" font-size="13px" font-style="normal" font-weight="normal" text-decoration="none" x="377" y="881">«include»</text></g></g><g transform="translate(-6,-30) scale(1,1)"><path fill="#C0C0C0" stroke="none" d="M 415 1017 C 415 1002.6405952 506.3339008 991 619 991 C 731.6660992 991 823 1002.6405952 823 1017 C 823 1031.3594048 731.6660992 1043 619 1043 C 506.3339008 1043 415 1031.3594048 415 1017 Z" opacity="0.2"/></g><g transform="translate(-6,-30) scale(1,1)"><path fill="#ffffff" stroke="none" d="M 408 1010 C 408 995.6405952 499.3339008 984 612 984 C 724.6660992 984 816 995.6405952 816 1010 C 816 1024.3594048 724.6660992 1036 612 1036 C 499.3339008 1036 408 1024.3594048 408 1010 Z"/></g><g transform="translate(-6,-30) scale(1,1)"><path fill="none" stroke="#000000" d="M 408 1010 C 408 995.6405952 499.3339008 984 612 984 C 724.6660992 984 816 995.6405952 816 1010 C 816 1024.3594048 724.6660992 1036 612 1036 C 499.3339008 1036 408 1024.3594048 408 1010 Z" stroke-miterlimit="10"/></g><g transform="translate(-6,-30) scale(1,1)"><g><path fill="none" stroke="none"/><text fill="#000000" stroke="none" font-family="Arial" font-size="13px" font-style="normal" font-weight="bold" text-decoration="none" x="490.5" y="1010.5">Introducerea spațiilor înainte de paranteze</text><text fill="#000000" stroke="none" font-family="Arial" font-size="13px" font-style="normal" font-weight="bold" text-decoration="none" x="520" y="1023.5">deschise (e.g. a(b) devine a (b))</text></g></g><g transform="translate(-6,-30) scale(1,1)"><path fill="none" stroke="#000000" d="M 255 676 L 583 983" stroke-miterlimit="10" stroke-dasharray="3"/></g><g transform="translate(-6,-30) scale(1,1)"><path fill="none" stroke="#000000" d="M 572.7037416227068 979.1286871182996 L 583 983 L 578.4568774713124 972.982014289822" stroke-miterlimit="10"/></g><g transform="translate(-6,-30) scale(1,1)"><g><path fill="none" stroke="none"/><text fill="#000000" stroke="none" font-family="Arial" font-size="13px" font-style="normal" font-weight="normal" text-decoration="none" x="485" y="819">«include»</text></g></g><g transform="translate(-6,-30) scale(1,1)"><path fill="#C0C0C0" stroke="none" d="M 239 1105 C 239 1090.6405952 324.9613184 1079 431 1079 C 537.0386816 1079 623 1090.6405952 623 1105 C 623 1119.3594048 537.0386816 1131 431 1131 C 324.9613184 1131 239 1119.3594048 239 1105 Z" opacity="0.2"/></g><g transform="translate(-6,-30) scale(1,1)"><path fill="#ffffff" stroke="none" d="M 232 1098 C 232 1083.6405952 317.9613184 1072 424 1072 C 530.0386816 1072 616 1083.6405952 616 1098 C 616 1112.3594048 530.0386816 1124 424 1124 C 317.9613184 1124 232 1112.3594048 232 1098 Z"/></g><g transform="translate(-6,-30) scale(1,1)"><path fill="none" stroke="#000000" d="M 232 1098 C 232 1083.6405952 317.9613184 1072 424 1072 C 530.0386816 1072 616 1083.6405952 616 1098 C 616 1112.3594048 530.0386816 1124 424 1124 C 317.9613184 1124 232 1112.3594048 232 1098 Z" stroke-miterlimit="10"/></g><g transform="translate(-6,-30) scale(1,1)"><g><path fill="none" stroke="none"/><text fill="#000000" stroke="none" font-family="Arial" font-size="13px" font-style="normal" font-weight="bold" text-decoration="none" x="311.5" y="1098.5">Introducerea unui spațiu după un semn</text><text fill="#000000" stroke="none" font-family="Arial" font-size="13px" font-style="normal" font-weight="bold" text-decoration="none" x="320" y="1111.5">de punctuație (e.g. a?b devine a? b)</text></g></g><g transform="translate(-6,-30) scale(1,1)"><path fill="none" stroke="#000000" d="M 222 676 L 411 1071" stroke-miterlimit="10" stroke-dasharray="3"/></g><g transform="translate(-6,-30) scale(1,1)"><path fill="none" stroke="#000000" d="M 402.81639110375284 1063.6495887575413 L 411 1071 L 410.4108402889375 1060.0157890208327" stroke-miterlimit="10"/></g><g transform="translate(-6,-30) scale(1,1)"><g><path fill="none" stroke="none"/><text fill="#000000" stroke="none" font-family="Arial" font-size="13px" font-style="normal" font-weight="normal" text-decoration="none" x="281" y="947">«include»</text></g></g></g></svg>