<?xml version="1.0" encoding="utf-8" ?>
<!DOCTYPE svg PUBLIC "-//W3C//DTD SVG 1.1//EN" "http://www.w3.org/Graphics/SVG/1.1/DTD/svg11.dtd">
<svg height="616" version="1.1" width="564" xmlns="http://www.w3.org/2000/svg">
<ellipse cx="254" cy="22" fill="#000000" rx="8.0" ry="8.0" stroke="#000000" stroke-width="1"/>
<rect fill="#00ff" height="34" rx="36" ry="36" stroke="#00ff" stroke-width="1" width="260" x="135" y="79"/>
<rect fill="#ffffff" height="36" rx="36" ry="36" stroke="#000000" stroke-width="1" width="262" x="134" y="78"/>
<rect fill="#ffffff" height="34" rx="36" ry="36" stroke="#ffffff" stroke-width="1" width="260" x="135" y="79"/>
<text font-family="Dialog" font-size="12" x="146" y="98">
Ștergerea caracterelor \r specifice Windows</text>
<polyline fill="none" points="254,31 254,78" stroke="#000000" stroke-width="1"/>
<line fill="#000000" stroke="#000000" stroke-width="1" x1="247" x2="254" y1="66" y2="78"/>
<line fill="#000000" stroke="#000000" stroke-width="1" x1="261" x2="254" y1="66" y2="78"/>
<rect fill="#00ff" height="34" rx="36" ry="36" stroke="#00ff" stroke-width="1" width="261" x="151" y="167"/>
<rect fill="#ffffff" height="36" rx="36" ry="36" stroke="#000000" stroke-width="1" width="263" x="150" y="166"/>
<rect fill="#ffffff" height="34" rx="36" ry="36" stroke="#ffffff" stroke-width="1" width="261" x="151" y="167"/>
<text font-family="Dialog" font-size="12" x="162" y="186">
Înlocuirea caracterelor \t cu un singur spațiu</text>
<polyline fill="none" points="255,112 255,167" stroke="#333399" stroke-width="1"/>
<line fill="#333399" stroke="#333399" stroke-width="1" x1="248" x2="255" y1="155" y2="167"/>
<line fill="#333399" stroke="#333399" stroke-width="1" x1="262" x2="255" y1="155" y2="167"/>
<rect fill="#00ff" height="34" rx="36" ry="36" stroke="#00ff" stroke-width="1" width="534" x="15" y="247"/>
<rect fill="#ffffff" height="36" rx="36" ry="36" stroke="#000000" stroke-width="1" width="536" x="14" y="246"/>
<rect fill="#ffffff" height="34" rx="36" ry="36" stroke="#ffffff" stroke-width="1" width="534" x="15" y="247"/>
<text font-family="Dialog" font-size="12" x="26" y="266">
Ștergerea oricărui caracter spațiu (i.e. \n, ' ', Unicode) de la începutul sau de la sfârșitul textului</text>
<polyline fill="none" points="256,201 256,246" stroke="#000000" stroke-width="1"/>
<line fill="#000000" stroke="#000000" stroke-width="1" x1="249" x2="256" y1="234" y2="246"/>
<line fill="#000000" stroke="#000000" stroke-width="1" x1="263" x2="256" y1="234" y2="246"/>
<rect fill="#00ff" height="34" rx="36" ry="36" stroke="#00ff" stroke-width="1" width="290" x="95" y="319"/>
<rect fill="#ffffff" height="36" rx="36" ry="36" stroke="#000000" stroke-width="1" width="292" x="94" y="318"/>
<rect fill="#ffffff" height="34" rx="36" ry="36" stroke="#ffffff" stroke-width="1" width="290" x="95" y="319"/>
<text font-family="Dialog" font-size="12" x="106" y="338">
Text fărămultiple newline-uri după sfârșit de frază</text>
<rect fill="#00ff" height="34" rx="36" ry="36" stroke="#00ff" stroke-width="1" width="302" x="103" y="399"/>
<rect fill="#ffffff" height="36" rx="36" ry="36" stroke="#000000" stroke-width="1" width="304" x="102" y="398"/>
<rect fill="#ffffff" height="34" rx="36" ry="36" stroke="#ffffff" stroke-width="1" width="302" x="103" y="399"/>
<text font-family="Dialog" font-size="12" x="114" y="418">
Text cu spații în loc de newline-uri în interiorul frazei</text>
<polyline fill="none" points="252,353 252,398" stroke="#000000" stroke-width="1"/>
<line fill="#000000" stroke="#000000" stroke-width="1" x1="245" x2="252" y1="386" y2="398"/>
<line fill="#000000" stroke="#000000" stroke-width="1" x1="259" x2="252" y1="386" y2="398"/>
<rect fill="#00ff" height="34" rx="36" ry="36" stroke="#00ff" stroke-width="1" width="262" x="135" y="487"/>
<rect fill="#ffffff" height="36" rx="36" ry="36" stroke="#000000" stroke-width="1" width="264" x="134" y="486"/>
<rect fill="#ffffff" height="34" rx="36" ry="36" stroke="#ffffff" stroke-width="1" width="262" x="135" y="487"/>
<text font-family="Dialog" font-size="12" x="146" y="506">
Text cu multiple spații consecutive eliminate</text>
<polyline fill="none" points="254,433 254,486" stroke="#000000" stroke-width="1"/>
<line fill="#000000" stroke="#000000" stroke-width="1" x1="247" x2="254" y1="474" y2="486"/>
<line fill="#000000" stroke="#000000" stroke-width="1" x1="261" x2="254" y1="474" y2="486"/>
<rect fill="#00ff" height="34" rx="36" ry="36" stroke="#00ff" stroke-width="1" width="205" x="159" y="567"/>
<rect fill="#ffffff" height="36" rx="36" ry="36" stroke="#000000" stroke-width="1" width="207" x="158" y="566"/>
<rect fill="#ffffff" height="34" rx="36" ry="36" stroke="#ffffff" stroke-width="1" width="205" x="159" y="567"/>
<text font-family="Dialog" font-size="12" x="170" y="586">
Aducerea textului la un anumit stil</text>
<polyline fill="none" points="254,521 254,566" stroke="#000000" stroke-width="1"/>
<line fill="#000000" stroke="#000000" stroke-width="1" x1="247" x2="254" y1="554" y2="566"/>
<line fill="#000000" stroke="#000000" stroke-width="1" x1="261" x2="254" y1="554" y2="566"/>
<polyline fill="none" points="256,280 256,319" stroke="#333399" stroke-width="1"/>
<line fill="#333399" stroke="#333399" stroke-width="1" x1="249" x2="256" y1="307" y2="319"/>
<line fill="#333399" stroke="#333399" stroke-width="1" x1="263" x2="256" y1="307" y2="319"/>
</svg>
