<?xml version="1.0" encoding="utf-8" ?>
<!DOCTYPE svg PUBLIC "-//W3C//DTD SVG 1.1//EN" "http://www.w3.org/Graphics/SVG/1.1/DTD/svg11.dtd">
<svg height="965" version="1.1" width="1608" xmlns="http://www.w3.org/2000/svg">
<rect fill="#ffffff" height="330" stroke="#ffffff" stroke-width="1" width="286" x="14" y="606"/>
<rect fill="none" height="330" stroke="#000000" stroke-width="1" width="286" x="14" y="606"/>
<text font-family="Dialog" font-size="12" x="96" y="620">
SmithWatermanGotoh</text>
<rect fill="#000000" height="1" stroke="#000000" stroke-width="1" width="286" x="14" y="630"/>
<text font-family="Dialog" font-size="12" x="18" y="645">
firstString : String</text>
<text font-family="Dialog" font-size="12" x="18" y="662">
secondString : String</text>
<text font-family="Dialog" font-size="12" x="18" y="679">
firstSequence : jligner.sequence</text>
<text font-family="Dialog" font-size="12" x="18" y="696">
secondSequence : jligner.sequence</text>
<text font-family="Dialog" font-size="12" x="18" y="713">
score : double</text>
<text font-family="Dialog" font-size="12" x="18" y="730">
similarity : int</text>
<text font-family="Dialog" font-size="12" x="18" y="747">
firstStart : int</text>
<text font-family="Dialog" font-size="12" x="18" y="764">
secondStart : int</text>
<rect fill="#000000" height="1" stroke="#000000" stroke-width="1" width="286" x="14" y="782"/>
<text font-family="Dialog" font-size="12" x="18" y="797">
TextAligner(firstString : String,secondString : String)</text>
<text font-family="Dialog" font-size="12" x="18" y="814">
align()</text>
<text font-family="Dialog" font-size="12" x="18" y="831">
getScore() : float</text>
<text font-family="Dialog" font-size="12" x="18" y="848">
getSimilarity() : int</text>
<text font-family="Dialog" font-size="12" x="18" y="865">
getFirstStart() : int</text>
<text font-family="Dialog" font-size="12" x="18" y="882">
getSecondStart() : int</text>
<text font-family="Dialog" font-size="12" x="18" y="899">
setFirstString(text : String)</text>
<text font-family="Dialog" font-size="12" x="18" y="916">
setSecondString(text : String)</text>
<rect fill="#ffffff" height="248" stroke="#ffffff" stroke-width="1" width="190" x="38" y="22"/>
<rect fill="none" height="248" stroke="#000000" stroke-width="1" width="190" x="38" y="22"/>
<text font-family="Dialog" font-size="12" x="92" y="36">
TextNormalizer</text>
<rect fill="#000000" height="1" stroke="#000000" stroke-width="1" width="190" x="38" y="46"/>
<text font-family="Dialog" font-size="12" x="42" y="61">
initialText : String</text>
<text font-family="Dialog" font-size="12" x="42" y="78">
clearedText : String</text>
<text font-family="Dialog" font-size="12" x="42" y="95">
spacesRemovedText : String</text>
<text font-family="Dialog" font-size="12" x="42" y="112">
stykeCorrectedText : String</text>
<text font-family="Dialog" font-size="12" x="42" y="129">
finalText : String</text>
<rect fill="#000000" height="1" stroke="#000000" stroke-width="1" width="190" x="38" y="140"/>
<text font-family="Dialog" font-size="12" x="42" y="155">
TextNormalizer(initialText : String)</text>
<text font-family="Dialog" font-size="12" x="42" y="172">
sanitize()</text>
<text font-family="Dialog" font-size="12" x="42" y="189">
clearText()</text>
<text font-family="Dialog" font-size="12" x="42" y="206">
removeExtraSpaces()</text>
<text font-family="Dialog" font-size="12" x="42" y="223">
corectStyle()</text>
<text font-family="Dialog" font-size="12" x="42" y="240">
get*()</text>
<text font-family="Dialog" font-size="12" x="42" y="257">
set*(text : String)</text>
<rect fill="#ffffff" height="160" stroke="#ffffff" stroke-width="1" width="239" x="302" y="102"/>
<rect fill="none" height="160" stroke="#000000" stroke-width="1" width="239" x="302" y="102"/>
<text font-family="Dialog" font-size="12" x="405" y="116">
Match</text>
<rect fill="#000000" height="1" stroke="#000000" stroke-width="1" width="239" x="302" y="126"/>
<text font-family="Dialog" font-size="12" x="306" y="141">
firstText : String</text>
<text font-family="Dialog" font-size="12" x="306" y="158">
secondText : String</text>
<text font-family="Dialog" font-size="12" x="306" y="175">
percent : Double</text>
<rect fill="#000000" height="1" stroke="#000000" stroke-width="1" width="239" x="302" y="185"/>
<text font-family="Dialog" font-size="12" x="306" y="200">
Match(firstText : String,secondText : String)</text>
<text font-family="Dialog" font-size="12" x="306" y="217">
runAlgorithms()</text>
<text font-family="Dialog" font-size="12" x="306" y="234">
sanitize()</text>
<text font-family="Dialog" font-size="12" x="306" y="251">
getPrecent() : Double</text>
<polyline fill="none" points="227,156 302,156" stroke="#000000" stroke-width="1"/>
<rect fill="#ffffff" height="152" stroke="#ffffff" stroke-width="1" width="298" x="30" y="350"/>
<rect fill="none" height="152" stroke="#000000" stroke-width="1" width="298" x="30" y="350"/>
<text font-family="Dialog" font-size="12" x="170" y="364">
API</text>
<rect fill="#000000" height="1" stroke="#000000" stroke-width="1" width="298" x="30" y="374"/>
<text font-family="Dialog" font-size="12" x="34" y="389">
firstText : String</text>
<text font-family="Dialog" font-size="12" x="34" y="406">
secondText : String</text>
<text font-family="Dialog" font-size="12" x="34" y="423">
percent : Double</text>
<rect fill="#000000" height="1" stroke="#000000" stroke-width="1" width="298" x="30" y="437"/>
<text font-family="Dialog" font-size="12" x="34" y="452">
API()</text>
<text font-family="Dialog" font-size="12" x="34" y="469">
getResult() : Double</text>
<text font-family="Dialog" font-size="12" x="34" y="486">
processRequest(firstText : String,secondText : String)</text>
<rect fill="#ffffff" height="128" stroke="#ffffff" stroke-width="1" width="186" x="446" y="318"/>
<rect fill="none" height="128" stroke="#000000" stroke-width="1" width="186" x="446" y="318"/>
<text font-family="Dialog" font-size="12" x="489" y="332">
TextAlignerFactory</text>
<rect fill="#000000" height="1" stroke="#000000" stroke-width="1" width="186" x="446" y="342"/>
<rect fill="#000000" height="1" stroke="#000000" stroke-width="1" width="186" x="446" y="391"/>
<text font-family="Dialog" font-size="12" x="450" y="406">
getTextAligner(algorithm : String)</text>
<rect fill="#ffffff" height="152" stroke="#ffffff" stroke-width="1" width="255" x="1062" y="742"/>
<rect fill="none" height="152" stroke="#000000" stroke-width="1" width="255" x="1062" y="742"/>
<text font-family="Dialog" font-size="12" x="1143" y="756">
HamingDistance</text>
<rect fill="#000000" height="1" stroke="#000000" stroke-width="1" width="255" x="1062" y="766"/>
<text font-family="Dialog" font-size="12" x="1066" y="781">
firstSequence : String</text>
<text font-family="Dialog" font-size="12" x="1066" y="798">
secondSequence : String</text>
<rect fill="#000000" height="1" stroke="#000000" stroke-width="1" width="255" x="1062" y="829"/>
<text font-family="Dialog" font-size="12" x="1066" y="844">
getScore() : double</text>
<text font-family="Dialog" font-size="12" x="1066" y="861">
HamingDistance(first : String,second : String)</text>
<polyline fill="none" points="310,350 310,261" stroke="#000000" stroke-width="1"/>
<rect fill="#ffffff" height="71" stroke="#ffffff" stroke-width="1" width="164" x="726" y="14"/>
<rect fill="none" height="71" stroke="#000000" stroke-width="1" width="164" x="726" y="14"/>
<text font-family="Dialog" font-size="12" x="763" y="28">
FactoryProducer</text>
<rect fill="#000000" height="1" stroke="#000000" stroke-width="1" width="164" x="726" y="38"/>
<rect fill="#000000" height="1" stroke="#000000" stroke-width="1" width="164" x="726" y="59"/>
<text font-family="Dialog" font-size="12" x="730" y="74">
getFactory() : AbstractFactory</text>
<rect fill="#ffffff" height="88" stroke="#ffffff" stroke-width="1" width="119" x="734" y="142"/>
<rect fill="none" height="88" stroke="#000000" stroke-width="1" width="119" x="734" y="142"/>
<text font-family="Dialog" font-size="12" x="752" y="156">
AbstractFactory</text>
<rect fill="#000000" height="1" stroke="#000000" stroke-width="1" width="119" x="734" y="166"/>
<rect fill="#000000" height="1" stroke="#000000" stroke-width="1" width="119" x="734" y="187"/>
<text font-family="Dialog" font-size="12" x="738" y="202">
getTextMatchScore()</text>
<text font-family="Dialog" font-size="12" x="738" y="219">
getTextAligner()</text>
<rect fill="#ffffff" height="71" stroke="#ffffff" stroke-width="1" width="212" x="926" y="278"/>
<rect fill="none" height="71" stroke="#000000" stroke-width="1" width="212" x="926" y="278"/>
<text font-family="Dialog" font-size="12" x="969" y="292">
TextMatchScoreFactory</text>
<rect fill="#000000" height="1" stroke="#000000" stroke-width="1" width="212" x="926" y="302"/>
<rect fill="#000000" height="1" stroke="#000000" stroke-width="1" width="212" x="926" y="323"/>
<text font-family="Dialog" font-size="12" x="930" y="338">
getTextMatchScore(algorithm : String)</text>
<polyline fill="none" points="631,318 734,229" stroke="#333399" stroke-width="1"/>
<polygon fill="#ffffff" points="734,229 729,242 720,231" stroke="#ffffff" stroke-width="1"/>
<polygon fill="none" points="734,229 729,242 720,231" stroke="#333399" stroke-width="1"/>
<polyline fill="none" points="926,278 852,229" stroke="#333399" stroke-width="1"/>
<polygon fill="#ffffff" points="852,229 865,229 858,241" stroke="#ffffff" stroke-width="1"/>
<polygon fill="none" points="852,229 865,229 858,241" stroke="#333399" stroke-width="1"/>
<polyline fill="none" points="788,84 788,142" stroke="#000000" stroke-width="1"/>
<rect fill="#ffffff" height="87" stroke="#ffffff" stroke-width="1" width="112" x="390" y="502"/>
<rect fill="none" height="87" stroke="#000000" stroke-width="1" width="112" x="390" y="502"/>
<text font-family="Dialog" font-size="12" x="416" y="536">
TextAligner</text>
<text font-family="Dialog" font-size="12" x="408" y="517">
&lt;&lt;interface&gt;&gt;</text>
<rect fill="#000000" height="1" stroke="#000000" stroke-width="1" width="112" x="390" y="546"/>
<text font-family="Dialog" font-size="12" x="394" y="561">
align()</text>
<text font-family="Dialog" font-size="12" x="394" y="578">
getScore() : double</text>
<polyline fill="none" points="469,502 469,445" stroke="#000000" stroke-width="1"/>
<line fill="#333399" stroke="#333399" stroke-width="1" x1="299" x2="303" y1="606" y2="606"/>
<line fill="#333399" stroke="#333399" stroke-width="1" x1="308" x2="313" y1="605" y2="604"/>
<line fill="#333399" stroke="#333399" stroke-width="1" x1="318" x2="323" y1="603" y2="602"/>
<line fill="#333399" stroke="#333399" stroke-width="1" x1="328" x2="333" y1="601" y2="600"/>
<line fill="#333399" stroke="#333399" stroke-width="1" x1="338" x2="343" y1="599" y2="598"/>
<line fill="#333399" stroke="#333399" stroke-width="1" x1="348" x2="353" y1="597" y2="596"/>
<line fill="#333399" stroke="#333399" stroke-width="1" x1="358" x2="363" y1="595" y2="594"/>
<line fill="#333399" stroke="#333399" stroke-width="1" x1="368" x2="373" y1="593" y2="592"/>
<line fill="#333399" stroke="#333399" stroke-width="1" x1="378" x2="383" y1="591" y2="590"/>
<line fill="#333399" stroke="#333399" stroke-width="1" x1="388" x2="390" y1="589" y2="588"/>
<polygon fill="#ffffff" points="390,588 379,597 376,583" stroke="#ffffff" stroke-width="1"/>
<polygon fill="none" points="390,588 379,597 376,583" stroke="#333399" stroke-width="1"/>
<text font-family="Dialog" font-size="12" x="308" y="582">
&lt;&lt;realize&gt;&gt;</text>
<rect fill="#ffffff" height="70" stroke="#ffffff" stroke-width="1" width="112" x="1094" y="422"/>
<rect fill="none" height="70" stroke="#000000" stroke-width="1" width="112" x="1094" y="422"/>
<text font-family="Dialog" font-size="12" x="1107" y="456">
TextMatchScore</text>
<text font-family="Dialog" font-size="12" x="1112" y="437">
&lt;&lt;interface&gt;&gt;</text>
<rect fill="#000000" height="1" stroke="#000000" stroke-width="1" width="112" x="1094" y="466"/>
<text font-family="Dialog" font-size="12" x="1098" y="481">
getScore() : double</text>
<polyline fill="none" points="1118,422 1118,348" stroke="#000000" stroke-width="1"/>
<line fill="#333399" stroke="#333399" stroke-width="1" x1="1118" x2="1118" y1="742" y2="737"/>
<line fill="#333399" stroke="#333399" stroke-width="1" x1="1118" x2="1118" y1="732" y2="727"/>
<line fill="#333399" stroke="#333399" stroke-width="1" x1="1118" x2="1118" y1="722" y2="717"/>
<line fill="#333399" stroke="#333399" stroke-width="1" x1="1118" x2="1118" y1="712" y2="707"/>
<line fill="#333399" stroke="#333399" stroke-width="1" x1="1118" x2="1118" y1="702" y2="697"/>
<line fill="#333399" stroke="#333399" stroke-width="1" x1="1118" x2="1118" y1="692" y2="687"/>
<line fill="#333399" stroke="#333399" stroke-width="1" x1="1118" x2="1118" y1="682" y2="677"/>
<line fill="#333399" stroke="#333399" stroke-width="1" x1="1118" x2="1118" y1="672" y2="667"/>
<line fill="#333399" stroke="#333399" stroke-width="1" x1="1118" x2="1118" y1="662" y2="657"/>
<line fill="#333399" stroke="#333399" stroke-width="1" x1="1118" x2="1118" y1="652" y2="647"/>
<line fill="#333399" stroke="#333399" stroke-width="1" x1="1118" x2="1118" y1="642" y2="637"/>
<line fill="#333399" stroke="#333399" stroke-width="1" x1="1118" x2="1118" y1="632" y2="627"/>
<line fill="#333399" stroke="#333399" stroke-width="1" x1="1118" x2="1118" y1="622" y2="617"/>
<line fill="#333399" stroke="#333399" stroke-width="1" x1="1118" x2="1118" y1="612" y2="607"/>
<line fill="#333399" stroke="#333399" stroke-width="1" x1="1118" x2="1118" y1="602" y2="597"/>
<line fill="#333399" stroke="#333399" stroke-width="1" x1="1118" x2="1118" y1="592" y2="587"/>
<line fill="#333399" stroke="#333399" stroke-width="1" x1="1118" x2="1118" y1="582" y2="577"/>
<line fill="#333399" stroke="#333399" stroke-width="1" x1="1118" x2="1118" y1="572" y2="567"/>
<line fill="#333399" stroke="#333399" stroke-width="1" x1="1118" x2="1118" y1="562" y2="557"/>
<line fill="#333399" stroke="#333399" stroke-width="1" x1="1118" x2="1118" y1="552" y2="547"/>
<line fill="#333399" stroke="#333399" stroke-width="1" x1="1118" x2="1118" y1="542" y2="537"/>
<line fill="#333399" stroke="#333399" stroke-width="1" x1="1118" x2="1118" y1="532" y2="527"/>
<line fill="#333399" stroke="#333399" stroke-width="1" x1="1118" x2="1118" y1="522" y2="517"/>
<line fill="#333399" stroke="#333399" stroke-width="1" x1="1118" x2="1118" y1="512" y2="507"/>
<line fill="#333399" stroke="#333399" stroke-width="1" x1="1118" x2="1118" y1="502" y2="497"/>
<line fill="#333399" stroke="#333399" stroke-width="1" x1="1118" x2="1118" y1="492" y2="491"/>
<polygon fill="#ffffff" points="1118,491 1125,503 1111,503" stroke="#ffffff" stroke-width="1"/>
<polygon fill="none" points="1118,491 1125,503 1111,503" stroke="#333399" stroke-width="1"/>
<text font-family="Dialog" font-size="12" x="1132" y="623">
&lt;&lt;realize&gt;&gt;</text>
<rect fill="#ffffff" height="160" stroke="#ffffff" stroke-width="1" width="286" x="342" y="646"/>
<rect fill="none" height="160" stroke="#000000" stroke-width="1" width="286" x="342" y="646"/>
<text font-family="Dialog" font-size="12" x="430" y="660">
NeedlemanWunsch</text>
<rect fill="#000000" height="1" stroke="#000000" stroke-width="1" width="286" x="342" y="670"/>
<text font-family="Dialog" font-size="12" x="346" y="685">
firstString : String</text>
<text font-family="Dialog" font-size="12" x="346" y="702">
secondString : String</text>
<text font-family="Dialog" font-size="12" x="346" y="719">
firstSequence : jligner.sequence</text>
<text font-family="Dialog" font-size="12" x="346" y="736">
secondSequence : jligner.sequence</text>
<rect fill="#000000" height="1" stroke="#000000" stroke-width="1" width="286" x="342" y="746"/>
<text font-family="Dialog" font-size="12" x="346" y="761">
align()</text>
<text font-family="Dialog" font-size="12" x="346" y="778">
getScore()</text>
<text font-family="Dialog" font-size="12" x="346" y="795">
TextAligner(firstString : String,secondString : String)</text>
<line fill="#333399" stroke="#333399" stroke-width="1" x1="501" x2="501" y1="646" y2="641"/>
<line fill="#333399" stroke="#333399" stroke-width="1" x1="501" x2="501" y1="636" y2="631"/>
<line fill="#333399" stroke="#333399" stroke-width="1" x1="501" x2="501" y1="626" y2="621"/>
<line fill="#333399" stroke="#333399" stroke-width="1" x1="501" x2="501" y1="616" y2="611"/>
<line fill="#333399" stroke="#333399" stroke-width="1" x1="501" x2="501" y1="606" y2="601"/>
<line fill="#333399" stroke="#333399" stroke-width="1" x1="501" x2="501" y1="596" y2="591"/>
<polygon fill="#ffffff" points="501,588 508,600 494,600" stroke="#ffffff" stroke-width="1"/>
<polygon fill="none" points="501,588 508,600 494,600" stroke="#333399" stroke-width="1"/>
<text font-family="Dialog" font-size="12" x="423" y="638">
&lt;&lt;realize&gt;&gt;</text>
<rect fill="#ffffff" height="177" stroke="#ffffff" stroke-width="1" width="278" x="710" y="774"/>
<rect fill="none" height="177" stroke="#000000" stroke-width="1" width="278" x="710" y="774"/>
<text font-family="Dialog" font-size="12" x="791" y="788">
LevenshteinDistance</text>
<rect fill="#000000" height="1" stroke="#000000" stroke-width="1" width="278" x="710" y="798"/>
<text font-family="Dialog" font-size="12" x="714" y="813">
firstSequence : String</text>
<text font-family="Dialog" font-size="12" x="714" y="830">
secondSequence : String</text>
<text font-family="Dialog" font-size="12" x="714" y="847">
matrix : Integer</text>
<text font-family="Dialog" font-size="12" x="714" y="864">
calculated : boolean</text>
<rect fill="#000000" height="1" stroke="#000000" stroke-width="1" width="278" x="710" y="874"/>
<text font-family="Dialog" font-size="12" x="714" y="889">
getSimilarity() : double</text>
<text font-family="Dialog" font-size="12" x="714" y="906">
getScore() : double</text>
<text font-family="Dialog" font-size="12" x="714" y="923">
setupMatrix()</text>
<text font-family="Dialog" font-size="12" x="714" y="940">
LevenshteinDistance(first : String,second : String)</text>
<line fill="#333399" stroke="#333399" stroke-width="1" x1="987" x2="988" y1="774" y2="770"/>
<line fill="#333399" stroke="#333399" stroke-width="1" x1="990" x2="992" y1="765" y2="760"/>
<line fill="#333399" stroke="#333399" stroke-width="1" x1="994" x2="995" y1="756" y2="751"/>
<line fill="#333399" stroke="#333399" stroke-width="1" x1="997" x2="999" y1="746" y2="742"/>
<line fill="#333399" stroke="#333399" stroke-width="1" x1="1001" x2="1002" y1="737" y2="732"/>
<line fill="#333399" stroke="#333399" stroke-width="1" x1="1004" x2="1006" y1="728" y2="723"/>
<line fill="#333399" stroke="#333399" stroke-width="1" x1="1008" x2="1010" y1="718" y2="714"/>
<line fill="#333399" stroke="#333399" stroke-width="1" x1="1011" x2="1013" y1="709" y2="704"/>
<line fill="#333399" stroke="#333399" stroke-width="1" x1="1015" x2="1017" y1="700" y2="695"/>
<line fill="#333399" stroke="#333399" stroke-width="1" x1="1018" x2="1020" y1="690" y2="685"/>
<line fill="#333399" stroke="#333399" stroke-width="1" x1="1022" x2="1024" y1="681" y2="676"/>
<line fill="#333399" stroke="#333399" stroke-width="1" x1="1025" x2="1027" y1="671" y2="667"/>
<line fill="#333399" stroke="#333399" stroke-width="1" x1="1029" x2="1031" y1="662" y2="657"/>
<line fill="#333399" stroke="#333399" stroke-width="1" x1="1033" x2="1034" y1="653" y2="648"/>
<line fill="#333399" stroke="#333399" stroke-width="1" x1="1036" x2="1038" y1="643" y2="639"/>
<line fill="#333399" stroke="#333399" stroke-width="1" x1="1040" x2="1041" y1="634" y2="629"/>
<line fill="#333399" stroke="#333399" stroke-width="1" x1="1043" x2="1045" y1="625" y2="620"/>
<line fill="#333399" stroke="#333399" stroke-width="1" x1="1047" x2="1049" y1="615" y2="611"/>
<line fill="#333399" stroke="#333399" stroke-width="1" x1="1050" x2="1052" y1="606" y2="601"/>
<line fill="#333399" stroke="#333399" stroke-width="1" x1="1054" x2="1056" y1="596" y2="592"/>
<line fill="#333399" stroke="#333399" stroke-width="1" x1="1057" x2="1059" y1="587" y2="582"/>
<line fill="#333399" stroke="#333399" stroke-width="1" x1="1061" x2="1063" y1="578" y2="573"/>
<line fill="#333399" stroke="#333399" stroke-width="1" x1="1064" x2="1066" y1="568" y2="564"/>
<line fill="#333399" stroke="#333399" stroke-width="1" x1="1068" x2="1070" y1="559" y2="554"/>
<line fill="#333399" stroke="#333399" stroke-width="1" x1="1072" x2="1073" y1="550" y2="545"/>
<line fill="#333399" stroke="#333399" stroke-width="1" x1="1075" x2="1077" y1="540" y2="536"/>
<line fill="#333399" stroke="#333399" stroke-width="1" x1="1079" x2="1080" y1="531" y2="526"/>
<line fill="#333399" stroke="#333399" stroke-width="1" x1="1082" x2="1084" y1="521" y2="517"/>
<line fill="#333399" stroke="#333399" stroke-width="1" x1="1086" x2="1087" y1="512" y2="507"/>
<line fill="#333399" stroke="#333399" stroke-width="1" x1="1089" x2="1091" y1="503" y2="498"/>
<line fill="#333399" stroke="#333399" stroke-width="1" x1="1093" x2="1094" y1="493" y2="491"/>
<polygon fill="#ffffff" points="1094,491 1096,504 1083,499" stroke="#ffffff" stroke-width="1"/>
<polygon fill="none" points="1094,491 1096,504 1083,499" stroke="#333399" stroke-width="1"/>
<text font-family="Dialog" font-size="12" x="961" y="629">
&lt;&lt;realize&gt;&gt;</text>
<rect fill="#ffffff" height="228" stroke="#ffffff" stroke-width="1" width="228" x="1366" y="646"/>
<rect fill="none" height="228" stroke="#000000" stroke-width="1" width="228" x="1366" y="646"/>
<text font-family="Dialog" font-size="12" x="1447" y="660">
JaroWinkler</text>
<rect fill="#000000" height="1" stroke="#000000" stroke-width="1" width="228" x="1366" y="670"/>
<text font-family="Dialog" font-size="12" x="1370" y="685">
firstSequence : String</text>
<text font-family="Dialog" font-size="12" x="1370" y="702">
secondSequence : String</text>
<text font-family="Dialog" font-size="12" x="1370" y="719">
theMatchA : String</text>
<text font-family="Dialog" font-size="12" x="1370" y="736">
theMatchB : String</text>
<text font-family="Dialog" font-size="12" x="1370" y="753">
range : Integer</text>
<rect fill="#000000" height="1" stroke="#000000" stroke-width="1" width="228" x="1366" y="763"/>
<text font-family="Dialog" font-size="12" x="1370" y="778">
JaroWinkler(first : String,second : String)</text>
<text font-family="Dialog" font-size="12" x="1370" y="795">
getScore() : double</text>
<text font-family="Dialog" font-size="12" x="1370" y="812">
getMatch()</text>
<text font-family="Dialog" font-size="12" x="1370" y="829">
getMissMatch(s1 : String,s2 : String)</text>
<text font-family="Dialog" font-size="12" x="1370" y="846">
getCommonPrefix(s1 : String,s2 : String)</text>
<text font-family="Dialog" font-size="12" x="1370" y="863">
getSimilarity() : Integer</text>
<line fill="#333399" stroke="#333399" stroke-width="1" x1="1366" x2="1363" y1="646" y2="643"/>
<line fill="#333399" stroke="#333399" stroke-width="1" x1="1359" x2="1356" y1="640" y2="636"/>
<line fill="#333399" stroke="#333399" stroke-width="1" x1="1352" x2="1348" y1="633" y2="629"/>
<line fill="#333399" stroke="#333399" stroke-width="1" x1="1345" x2="1341" y1="626" y2="622"/>
<line fill="#333399" stroke="#333399" stroke-width="1" x1="1338" x2="1334" y1="619" y2="615"/>
<line fill="#333399" stroke="#333399" stroke-width="1" x1="1330" x2="1327" y1="612" y2="608"/>
<line fill="#333399" stroke="#333399" stroke-width="1" x1="1323" x2="1320" y1="605" y2="601"/>
<line fill="#333399" stroke="#333399" stroke-width="1" x1="1316" x2="1312" y1="598" y2="594"/>
<line fill="#333399" stroke="#333399" stroke-width="1" x1="1309" x2="1305" y1="591" y2="587"/>
<line fill="#333399" stroke="#333399" stroke-width="1" x1="1302" x2="1298" y1="584" y2="580"/>
<line fill="#333399" stroke="#333399" stroke-width="1" x1="1294" x2="1291" y1="577" y2="574"/>
<line fill="#333399" stroke="#333399" stroke-width="1" x1="1287" x2="1283" y1="570" y2="567"/>
<line fill="#333399" stroke="#333399" stroke-width="1" x1="1280" x2="1276" y1="563" y2="560"/>
<line fill="#333399" stroke="#333399" stroke-width="1" x1="1273" x2="1269" y1="556" y2="553"/>
<line fill="#333399" stroke="#333399" stroke-width="1" x1="1265" x2="1262" y1="549" y2="546"/>
<line fill="#333399" stroke="#333399" stroke-width="1" x1="1258" x2="1255" y1="542" y2="539"/>
<line fill="#333399" stroke="#333399" stroke-width="1" x1="1251" x2="1247" y1="535" y2="532"/>
<line fill="#333399" stroke="#333399" stroke-width="1" x1="1244" x2="1240" y1="528" y2="525"/>
<line fill="#333399" stroke="#333399" stroke-width="1" x1="1237" x2="1233" y1="521" y2="518"/>
<line fill="#333399" stroke="#333399" stroke-width="1" x1="1229" x2="1226" y1="514" y2="511"/>
<line fill="#333399" stroke="#333399" stroke-width="1" x1="1222" x2="1218" y1="507" y2="504"/>
<line fill="#333399" stroke="#333399" stroke-width="1" x1="1215" x2="1211" y1="501" y2="497"/>
<line fill="#333399" stroke="#333399" stroke-width="1" x1="1208" x2="1205" y1="494" y2="491"/>
<polygon fill="#ffffff" points="1205,491 1218,494 1208,504" stroke="#ffffff" stroke-width="1"/>
<polygon fill="none" points="1205,491 1218,494 1208,504" stroke="#333399" stroke-width="1"/>
<text font-family="Dialog" font-size="12" x="1286" y="549">
&lt;&lt;realize&gt;&gt;</text>
<polyline fill="none" points="540,102 726,84" stroke="#000000" stroke-width="1"/>
<rect fill="#ffffff" height="177" stroke="#ffffff" stroke-width="1" width="191" x="670" y="510"/>
<rect fill="none" height="177" stroke="#000000" stroke-width="1" width="191" x="670" y="510"/>
<text font-family="Dialog" font-size="12" x="753" y="524">
KMP</text>
<rect fill="#000000" height="1" stroke="#000000" stroke-width="1" width="191" x="670" y="534"/>
<text font-family="Dialog" font-size="12" x="674" y="549">
firstText : String</text>
<text font-family="Dialog" font-size="12" x="674" y="566">
secondText : String</text>
<text font-family="Dialog" font-size="12" x="674" y="583">
score : double</text>
<rect fill="#000000" height="1" stroke="#000000" stroke-width="1" width="191" x="670" y="593"/>
<text font-family="Dialog" font-size="12" x="674" y="608">
align()</text>
<text font-family="Dialog" font-size="12" x="674" y="625">
getScore() : double</text>
<text font-family="Dialog" font-size="12" x="674" y="642">
KMP(s1 : String,s2 : String)</text>
<text font-family="Dialog" font-size="12" x="674" y="659">
match(pattern : String,text : String)</text>
<text font-family="Dialog" font-size="12" x="674" y="676">
splitInBlocks(text : String)</text>
<line fill="#333399" stroke="#333399" stroke-width="1" x1="670" x2="665" y1="542" y2="542"/>
<line fill="#333399" stroke="#333399" stroke-width="1" x1="660" x2="655" y1="542" y2="542"/>
<line fill="#333399" stroke="#333399" stroke-width="1" x1="650" x2="645" y1="542" y2="542"/>
<line fill="#333399" stroke="#333399" stroke-width="1" x1="640" x2="635" y1="542" y2="542"/>
<line fill="#333399" stroke="#333399" stroke-width="1" x1="630" x2="625" y1="542" y2="542"/>
<line fill="#333399" stroke="#333399" stroke-width="1" x1="620" x2="615" y1="542" y2="542"/>
<line fill="#333399" stroke="#333399" stroke-width="1" x1="610" x2="605" y1="542" y2="542"/>
<line fill="#333399" stroke="#333399" stroke-width="1" x1="600" x2="595" y1="542" y2="542"/>
<line fill="#333399" stroke="#333399" stroke-width="1" x1="590" x2="585" y1="542" y2="542"/>
<line fill="#333399" stroke="#333399" stroke-width="1" x1="580" x2="575" y1="542" y2="542"/>
<line fill="#333399" stroke="#333399" stroke-width="1" x1="570" x2="565" y1="542" y2="542"/>
<line fill="#333399" stroke="#333399" stroke-width="1" x1="560" x2="555" y1="542" y2="542"/>
<line fill="#333399" stroke="#333399" stroke-width="1" x1="550" x2="545" y1="542" y2="542"/>
<line fill="#333399" stroke="#333399" stroke-width="1" x1="540" x2="535" y1="542" y2="542"/>
<line fill="#333399" stroke="#333399" stroke-width="1" x1="530" x2="525" y1="542" y2="542"/>
<line fill="#333399" stroke="#333399" stroke-width="1" x1="520" x2="515" y1="542" y2="542"/>
<line fill="#333399" stroke="#333399" stroke-width="1" x1="510" x2="505" y1="542" y2="542"/>
<polygon fill="#ffffff" points="501,542 513,535 513,549" stroke="#ffffff" stroke-width="1"/>
<polygon fill="none" points="501,542 513,535 513,549" stroke="#333399" stroke-width="1"/>
<text font-family="Dialog" font-size="12" x="554" y="530">
&lt;&lt;realize&gt;&gt;</text>
<rect fill="#ffffff" height="160" stroke="#ffffff" stroke-width="1" width="186" x="1374" y="391"/>
<rect fill="none" height="160" stroke="#000000" stroke-width="1" width="186" x="1374" y="391"/>
<text font-family="Dialog" font-size="12" x="1455" y="405">
LCS</text>
<rect fill="#000000" height="1" stroke="#000000" stroke-width="1" width="186" x="1374" y="415"/>
<text font-family="Dialog" font-size="12" x="1378" y="430">
firstSequence : String</text>
<text font-family="Dialog" font-size="12" x="1378" y="447">
secondSequence : String</text>
<text font-family="Dialog" font-size="12" x="1378" y="464">
score : double</text>
<text font-family="Dialog" font-size="12" x="1378" y="481">
newAttr : Integer</text>
<rect fill="#000000" height="1" stroke="#000000" stroke-width="1" width="186" x="1374" y="491"/>
<text font-family="Dialog" font-size="12" x="1378" y="506">
LCS(first : String,second : String)</text>
<text font-family="Dialog" font-size="12" x="1378" y="523">
getScore() : double</text>
<text font-family="Dialog" font-size="12" x="1378" y="540">
getLCS() : String</text>
<line fill="#333399" stroke="#333399" stroke-width="1" x1="1374" x2="1369" y1="458" y2="458"/>
<line fill="#333399" stroke="#333399" stroke-width="1" x1="1364" x2="1359" y1="458" y2="458"/>
<line fill="#333399" stroke="#333399" stroke-width="1" x1="1354" x2="1349" y1="458" y2="458"/>
<line fill="#333399" stroke="#333399" stroke-width="1" x1="1344" x2="1339" y1="458" y2="458"/>
<line fill="#333399" stroke="#333399" stroke-width="1" x1="1334" x2="1329" y1="458" y2="458"/>
<line fill="#333399" stroke="#333399" stroke-width="1" x1="1324" x2="1319" y1="458" y2="458"/>
<line fill="#333399" stroke="#333399" stroke-width="1" x1="1314" x2="1309" y1="458" y2="458"/>
<line fill="#333399" stroke="#333399" stroke-width="1" x1="1304" x2="1299" y1="458" y2="458"/>
<line fill="#333399" stroke="#333399" stroke-width="1" x1="1294" x2="1289" y1="458" y2="458"/>
<line fill="#333399" stroke="#333399" stroke-width="1" x1="1284" x2="1279" y1="458" y2="458"/>
<line fill="#333399" stroke="#333399" stroke-width="1" x1="1274" x2="1269" y1="458" y2="458"/>
<line fill="#333399" stroke="#333399" stroke-width="1" x1="1264" x2="1259" y1="458" y2="458"/>
<line fill="#333399" stroke="#333399" stroke-width="1" x1="1254" x2="1249" y1="458" y2="458"/>
<line fill="#333399" stroke="#333399" stroke-width="1" x1="1244" x2="1239" y1="458" y2="458"/>
<line fill="#333399" stroke="#333399" stroke-width="1" x1="1234" x2="1229" y1="458" y2="458"/>
<line fill="#333399" stroke="#333399" stroke-width="1" x1="1224" x2="1219" y1="458" y2="458"/>
<line fill="#333399" stroke="#333399" stroke-width="1" x1="1214" x2="1209" y1="458" y2="458"/>
<polygon fill="#ffffff" points="1205,458 1217,451 1217,465" stroke="#ffffff" stroke-width="1"/>
<polygon fill="none" points="1205,458 1217,451 1217,465" stroke="#333399" stroke-width="1"/>
<text font-family="Dialog" font-size="12" x="1258" y="446">
&lt;&lt;realize&gt;&gt;</text>
</svg>
