<svg version="1.1" xmlns="http://www.w3.org/2000/svg" xmlns:xlink="http://www.w3.org/1999/xlink" width="1317" height="348"><defs/><g><g transform="translate(-78,-46) scale(1,1)"><path fill="#C0C0C0" stroke="none" d="M 95 226.5 C 95 221.2532944 99.2532944 217 104.5 217 C 109.7467056 217 114 221.2532944 114 226.5 C 114 231.7467056 109.7467056 236 104.5 236 C 99.2532944 236 95 231.7467056 95 226.5 Z" opacity="0.2"/></g><g transform="translate(-78,-46) scale(1,1)"><path fill="#000000" stroke="none" d="M 88 219.5 C 88 214.2532944 92.2532944 210 97.5 210 C 102.7467056 210 107 214.2532944 107 219.5 C 107 224.7467056 102.7467056 229 97.5 229 C 92.2532944 229 88 224.7467056 88 219.5 Z"/></g><g transform="translate(-78,-46) scale(1,1)"><g><path fill="none" stroke="none"/><text fill="#000000" stroke="none" font-family="Arial" font-size="13px" font-style="normal" font-weight="normal" text-decoration="none" x="109" y="194">Primire text</text><text fill="#000000" stroke="none" font-family="Arial" font-size="13px" font-style="normal" font-weight="normal" text-decoration="none" x="109" y="207">inițial</text></g></g><g transform="translate(-78,-46) scale(1,1)"><path fill="#C0C0C0" stroke="none" d="M 256 207 L 374.28271484375 207 Q 384.28271484375 207 384.28271484375 217 L 384.28271484375 236 Q 384.28271484375 246 374.28271484375 246 L 256 246 Q 246 246 246 236 L 246 217 Q 246 207 256 207 Z" opacity="0.2"/></g><g transform="translate(-78,-46) scale(1,1)"><path fill="#ffffff" stroke="none" d="M 249 200 L 367.28271484375 200 Q 377.28271484375 200 377.28271484375 210 L 377.28271484375 229 Q 377.28271484375 239 367.28271484375 239 L 249 239 Q 239 239 239 229 L 239 210 Q 239 200 249 200 Z"/></g><g transform="translate(-78,-46) scale(1,1)"><path fill="none" stroke="#000000" d="M 249 200 L 367.28271484375 200 Q 377.28271484375 200 377.28271484375 210 L 377.28271484375 229 Q 377.28271484375 239 367.28271484375 239 L 249 239 Q 239 239 239 229 L 239 210 Q 239 200 249 200 Z" stroke-miterlimit="10"/></g><g transform="translate(-78,-46) scale(1,1)"><g><path fill="none" stroke="none"/><text fill="#000000" stroke="none" font-family="Arial" font-size="13px" font-style="normal" font-weight="bold" text-decoration="none" x="249.974609375" y="219.5">Text inițial disponibil</text></g></g><g transform="translate(-78,-46) scale(1,1)"><path fill="none" stroke="#000000" d="M 108 219 L 238 219" stroke-miterlimit="10"/></g><g transform="translate(-78,-46) scale(1,1)"><path fill="none" stroke="#000000" d="M 227.83732514237585 223.209517756016 L 238 219 L 227.83732514237585 214.790482243984" stroke-miterlimit="10"/></g><g transform="translate(-78,-46) scale(1,1)"><g><path fill="none" stroke="none"/><text fill="#000000" stroke="none" font-family="Arial" font-size="13px" font-style="normal" font-weight="normal" text-decoration="none" x="389" y="186">Eliminarea</text><text fill="#000000" stroke="none" font-family="Arial" font-size="13px" font-style="normal" font-weight="normal" text-decoration="none" x="389" y="199">spațiilor din jurul</text><text fill="#000000" stroke="none" font-family="Arial" font-size="13px" font-style="normal" font-weight="normal" text-decoration="none" x="389" y="212">textului</text></g></g><g transform="translate(-78,-46) scale(1,1)"><path fill="#C0C0C0" stroke="none" d="M 545 63 L 813 63 Q 823 63 823 73 L 823 381 Q 823 391 813 391 L 545 391 Q 535 391 535 381 L 535 73 Q 535 63 545 63 Z" opacity="0.2"/></g><g transform="translate(-78,-46) scale(1,1)"><path fill="#ffffff" stroke="none" d="M 538 56 L 806 56 Q 816 56 816 66 L 816 374 Q 816 384 806 384 L 538 384 Q 528 384 528 374 L 528 66 Q 528 56 538 56 Z"/></g><g transform="translate(-78,-46) scale(1,1)"><path fill="none" stroke="#000000" d="M 538 56 L 806 56 Q 816 56 816 66 L 816 374 Q 816 384 806 384 L 538 384 Q 528 384 528 374 L 528 66 Q 528 56 538 56 Z" stroke-miterlimit="10"/></g><g transform="translate(-78,-46) scale(1,1)"><g><path fill="none" stroke="none"/><text fill="#000000" stroke="none" font-family="Arial" font-size="13px" font-style="normal" font-weight="bold" text-decoration="none" x="584.208740234375" y="75.5">Text fără spații în jur disponibil</text></g></g><g transform="translate(-78,-46) scale(1,1)"><path fill="none" stroke="#000000" d="M 378 219 L 527 220" stroke-miterlimit="10"/></g><g transform="translate(-78,-46) scale(1,1)"><path fill="none" stroke="#000000" d="M 516.8093028526389 224.1412186190501 L 527 220 L 516.8658051741762 215.72237270998892" stroke-miterlimit="10"/></g><g transform="translate(-78,-46) scale(1,1)"><path fill="#C0C0C0" stroke="none" d="M 668 112.5 C 668 107.2532944 672.2532944 103 677.5 103 C 682.7467056 103 687 107.2532944 687 112.5 C 687 117.7467056 682.7467056 122 677.5 122 C 672.2532944 122 668 117.7467056 668 112.5 Z" opacity="0.2"/></g><g transform="translate(-78,-46) scale(1,1)"><path fill="#000000" stroke="none" d="M 661 105.5 C 661 100.2532944 665.2532944 96 670.5 96 C 675.7467056 96 680 100.2532944 680 105.5 C 680 110.7467056 675.7467056 115 670.5 115 C 665.2532944 115 661 110.7467056 661 105.5 Z"/></g><g transform="translate(-78,-46) scale(1,1)"><path fill="#C0C0C0" stroke="none" d="M 595 150 L 760.29345703125 150 Q 770.29345703125 150 770.29345703125 160 L 770.29345703125 179 Q 770.29345703125 189 760.29345703125 189 L 595 189 Q 585 189 585 179 L 585 160 Q 585 150 595 150 Z" opacity="0.2"/></g><g transform="translate(-78,-46) scale(1,1)"><path fill="#ffffff" stroke="none" d="M 588 143 L 753.29345703125 143 Q 763.29345703125 143 763.29345703125 153 L 763.29345703125 172 Q 763.29345703125 182 753.29345703125 182 L 588 182 Q 578 182 578 172 L 578 153 Q 578 143 588 143 Z"/></g><g transform="translate(-78,-46) scale(1,1)"><path fill="none" stroke="#000000" d="M 588 143 L 753.29345703125 143 Q 763.29345703125 143 763.29345703125 153 L 763.29345703125 172 Q 763.29345703125 182 753.29345703125 182 L 588 182 Q 578 182 578 172 L 578 153 Q 578 143 588 143 Z" stroke-miterlimit="10"/></g><g transform="translate(-78,-46) scale(1,1)"><g><path fill="none" stroke="none"/><text fill="#000000" stroke="none" font-family="Arial" font-size="13px" font-style="normal" font-weight="bold" text-decoration="none" x="589.009521484375" y="162.5">Text cu caracterul \r eliminat</text></g></g><g transform="translate(-78,-46) scale(1,1)"><path fill="#C0C0C0" stroke="none" d="M 590 217 L 765.3671875 217 Q 775.3671875 217 775.3671875 227 L 775.3671875 246 Q 775.3671875 256 765.3671875 256 L 590 256 Q 580 256 580 246 L 580 227 Q 580 217 590 217 Z" opacity="0.2"/></g><g transform="translate(-78,-46) scale(1,1)"><path fill="#ffffff" stroke="none" d="M 583 210 L 758.3671875 210 Q 768.3671875 210 768.3671875 220 L 768.3671875 239 Q 768.3671875 249 758.3671875 249 L 583 249 Q 573 249 573 239 L 573 220 Q 573 210 583 210 Z"/></g><g transform="translate(-78,-46) scale(1,1)"><path fill="none" stroke="#000000" d="M 583 210 L 758.3671875 210 Q 768.3671875 210 768.3671875 220 L 768.3671875 239 Q 768.3671875 249 758.3671875 249 L 583 249 Q 573 249 573 239 L 573 220 Q 573 210 583 210 Z" stroke-miterlimit="10"/></g><g transform="translate(-78,-46) scale(1,1)"><g><path fill="none" stroke="none"/><text fill="#000000" stroke="none" font-family="Arial" font-size="13px" font-style="normal" font-weight="bold" text-decoration="none" x="585.06005859375" y="229.5">Caracterul \t înlocuit cu spațiu</text></g></g><g transform="translate(-78,-46) scale(1,1)"><path fill="#C0C0C0" stroke="none" d="M 568 284 L 786.6962890625 284 Q 796.6962890625 284 796.6962890625 294 L 796.6962890625 313 Q 796.6962890625 323 786.6962890625 323 L 568 323 Q 558 323 558 313 L 558 294 Q 558 284 568 284 Z" opacity="0.2"/></g><g transform="translate(-78,-46) scale(1,1)"><path fill="#ffffff" stroke="none" d="M 561 277 L 779.6962890625 277 Q 789.6962890625 277 789.6962890625 287 L 789.6962890625 306 Q 789.6962890625 316 779.6962890625 316 L 561 316 Q 551 316 551 306 L 551 287 Q 551 277 561 277 Z"/></g><g transform="translate(-78,-46) scale(1,1)"><path fill="none" stroke="#000000" d="M 561 277 L 779.6962890625 277 Q 789.6962890625 277 789.6962890625 287 L 789.6962890625 306 Q 789.6962890625 316 779.6962890625 316 L 561 316 Q 551 316 551 306 L 551 287 Q 551 277 561 277 Z" stroke-miterlimit="10"/></g><g transform="translate(-78,-46) scale(1,1)"><g><path fill="none" stroke="none"/><text fill="#000000" stroke="none" font-family="Arial" font-size="13px" font-style="normal" font-weight="bold" text-decoration="none" x="565.215087890625" y="296.5">Whitespace eliminat din jurul textului</text></g></g><g transform="translate(-78,-46) scale(1,1)"><path fill="#C0C0C0" stroke="none" d="M 665 363.5 C 665 356.59644 670.59644 351 677.5 351 C 684.40356 351 690 356.59644 690 363.5 C 690 370.40356 684.40356 376 677.5 376 C 670.59644 376 665 370.40356 665 363.5 Z" opacity="0.2"/></g><g transform="translate(-78,-46) scale(1,1)"><path fill="none" stroke="#000000" d="M 658 356.5 C 658 349.59644 663.59644 344 670.5 344 C 677.40356 344 683 349.59644 683 356.5 C 683 363.40356 677.40356 369 670.5 369 C 663.59644 369 658 363.40356 658 356.5 Z" stroke-miterlimit="10"/></g><g transform="translate(-78,-46) scale(1,1)"><path fill="#000000" stroke="none" d="M 663 356.5 C 663 352.357864 666.357864 349 670.5 349 C 674.642136 349 678 352.357864 678 356.5 C 678 360.642136 674.642136 364 670.5 364 C 666.357864 364 663 360.642136 663 356.5 Z"/></g><g transform="translate(-78,-46) scale(1,1)"><path fill="none" stroke="#000000" d="M 670 116 L 670 142" stroke-miterlimit="10"/></g><g transform="translate(-78,-46) scale(1,1)"><path fill="none" stroke="#000000" d="M 665.790482243984 131.83732514237585 L 670 142 L 674.209517756016 131.83732514237585" stroke-miterlimit="10"/></g><g transform="translate(-78,-46) scale(1,1)"><path fill="none" stroke="#000000" d="M 670 183 L 670 209" stroke-miterlimit="10"/></g><g transform="translate(-78,-46) scale(1,1)"><path fill="none" stroke="#000000" d="M 665.790482243984 198.83732514237585 L 670 209 L 674.209517756016 198.83732514237585" stroke-miterlimit="10"/></g><g transform="translate(-78,-46) scale(1,1)"><path fill="none" stroke="#000000" d="M 670 250 L 670 276" stroke-miterlimit="10"/></g><g transform="translate(-78,-46) scale(1,1)"><path fill="none" stroke="#000000" d="M 665.790482243984 265.83732514237585 L 670 276 L 674.209517756016 265.83732514237585" stroke-miterlimit="10"/></g><g transform="translate(-78,-46) scale(1,1)"><path fill="none" stroke="#000000" d="M 670 317 L 670 343" stroke-miterlimit="10"/></g><g transform="translate(-78,-46) scale(1,1)"><path fill="none" stroke="#000000" d="M 665.790482243984 332.83732514237585 L 670 343 L 674.209517756016 332.83732514237585" stroke-miterlimit="10"/></g><g transform="translate(-78,-46) scale(1,1)"><path fill="#C0C0C0" stroke="none" d="M 945 63 L 1240.26806640625 63 Q 1250.26806640625 63 1250.26806640625 73 L 1250.26806640625 381 Q 1250.26806640625 391 1240.26806640625 391 L 945 391 Q 935 391 935 381 L 935 73 Q 935 63 945 63 Z" opacity="0.2"/></g><g transform="translate(-78,-46) scale(1,1)"><path fill="#ffffff" stroke="none" d="M 938 56 L 1233.26806640625 56 Q 1243.26806640625 56 1243.26806640625 66 L 1243.26806640625 374 Q 1243.26806640625 384 1233.26806640625 384 L 938 384 Q 928 384 928 374 L 928 66 Q 928 56 938 56 Z"/></g><g transform="translate(-78,-46) scale(1,1)"><path fill="none" stroke="#000000" d="M 938 56 L 1233.26806640625 56 Q 1243.26806640625 56 1243.26806640625 66 L 1243.26806640625 374 Q 1243.26806640625 384 1233.26806640625 384 L 938 384 Q 928 384 928 374 L 928 66 Q 928 56 938 56 Z" stroke-miterlimit="10"/></g><g transform="translate(-78,-46) scale(1,1)"><g><path fill="none" stroke="none"/><text fill="#000000" stroke="none" font-family="Arial" font-size="13px" font-style="normal" font-weight="bold" text-decoration="none" x="983.392333984375" y="75.5">Text cu spații consecutive eliminate</text></g></g><g transform="translate(-78,-46) scale(1,1)"><path fill="#C0C0C0" stroke="none" d="M 1089 112.5 C 1089 107.2532944 1093.2532944 103 1098.5 103 C 1103.7467056 103 1108 107.2532944 1108 112.5 C 1108 117.7467056 1103.7467056 122 1098.5 122 C 1093.2532944 122 1089 117.7467056 1089 112.5 Z" opacity="0.2"/></g><g transform="translate(-78,-46) scale(1,1)"><path fill="#000000" stroke="none" d="M 1082 105.5 C 1082 100.2532944 1086.2532944 96 1091.5 96 C 1096.7467056 96 1101 100.2532944 1101 105.5 C 1101 110.7467056 1096.7467056 115 1091.5 115 C 1086.2532944 115 1082 110.7467056 1082 105.5 Z"/></g><g transform="translate(-78,-46) scale(1,1)"><path fill="#C0C0C0" stroke="none" d="M 1086 363.5 C 1086 356.59644 1091.59644 351 1098.5 351 C 1105.40356 351 1111 356.59644 1111 363.5 C 1111 370.40356 1105.40356 376 1098.5 376 C 1091.59644 376 1086 370.40356 1086 363.5 Z" opacity="0.2"/></g><g transform="translate(-78,-46) scale(1,1)"><path fill="none" stroke="#000000" d="M 1079 356.5 C 1079 349.59644 1084.59644 344 1091.5 344 C 1098.40356 344 1104 349.59644 1104 356.5 C 1104 363.40356 1098.40356 369 1091.5 369 C 1084.59644 369 1079 363.40356 1079 356.5 Z" stroke-miterlimit="10"/></g><g transform="translate(-78,-46) scale(1,1)"><path fill="#000000" stroke="none" d="M 1084 356.5 C 1084 352.357864 1087.357864 349 1091.5 349 C 1095.642136 349 1099 352.357864 1099 356.5 C 1099 360.642136 1095.642136 364 1091.5 364 C 1087.357864 364 1084 360.642136 1084 356.5 Z"/></g><g transform="translate(-78,-46) scale(1,1)"><path fill="#C0C0C0" stroke="none" d="M 1004 150 L 1192 150 Q 1202 150 1202 160 L 1202 179 Q 1202 189 1192 189 L 1004 189 Q 994 189 994 179 L 994 160 Q 994 150 1004 150 Z" opacity="0.2"/></g><g transform="translate(-78,-46) scale(1,1)"><path fill="#ffffff" stroke="none" d="M 997 143 L 1185 143 Q 1195 143 1195 153 L 1195 172 Q 1195 182 1185 182 L 997 182 Q 987 182 987 172 L 987 153 Q 987 143 997 143 Z"/></g><g transform="translate(-78,-46) scale(1,1)"><path fill="none" stroke="#000000" d="M 997 143 L 1185 143 Q 1195 143 1195 153 L 1195 172 Q 1195 182 1185 182 L 997 182 Q 987 182 987 172 L 987 153 Q 987 143 997 143 Z" stroke-miterlimit="10"/></g><g transform="translate(-78,-46) scale(1,1)"><g><path fill="none" stroke="none"/><text fill="#000000" stroke="none" font-family="Arial" font-size="13px" font-style="normal" font-weight="bold" text-decoration="none" x="1007.912353515625" y="162.5">Text fără multiple newline-uri</text><text fill="#000000" stroke="none" font-family="Arial" font-size="13px" font-style="normal" font-weight="bold" text-decoration="none" x="1032.1064453125" y="175.5">după sfârșit de frază</text></g></g><g transform="translate(-78,-46) scale(1,1)"><path fill="#C0C0C0" stroke="none" d="M 1002 217 L 1195.33349609375 217 Q 1205.33349609375 217 1205.33349609375 227 L 1205.33349609375 246 Q 1205.33349609375 256 1195.33349609375 256 L 1002 256 Q 992 256 992 246 L 992 227 Q 992 217 1002 217 Z" opacity="0.2"/></g><g transform="translate(-78,-46) scale(1,1)"><path fill="#ffffff" stroke="none" d="M 995 210 L 1188.33349609375 210 Q 1198.33349609375 210 1198.33349609375 220 L 1198.33349609375 239 Q 1198.33349609375 249 1188.33349609375 249 L 995 249 Q 985 249 985 239 L 985 220 Q 985 210 995 210 Z"/></g><g transform="translate(-78,-46) scale(1,1)"><path fill="none" stroke="#000000" d="M 995 210 L 1188.33349609375 210 Q 1198.33349609375 210 1198.33349609375 220 L 1198.33349609375 239 Q 1198.33349609375 249 1188.33349609375 249 L 995 249 Q 985 249 985 239 L 985 220 Q 985 210 995 210 Z" stroke-miterlimit="10"/></g><g transform="translate(-78,-46) scale(1,1)"><g><path fill="none" stroke="none"/><text fill="#000000" stroke="none" font-family="Arial" font-size="13px" font-style="normal" font-weight="bold" text-decoration="none" x="1026.996826171875" y="229.5">Text cu spații în loc de</text><text fill="#000000" stroke="none" font-family="Arial" font-size="13px" font-style="normal" font-weight="bold" text-decoration="none" x="1008.575927734375" y="242.5">newline-uri în interiorul frazei</text></g></g><g transform="translate(-78,-46) scale(1,1)"><path fill="#C0C0C0" stroke="none" d="M 1000 284 L 1196 284 Q 1206 284 1206 294 L 1206 313 Q 1206 323 1196 323 L 1000 323 Q 990 323 990 313 L 990 294 Q 990 284 1000 284 Z" opacity="0.2"/></g><g transform="translate(-78,-46) scale(1,1)"><path fill="#ffffff" stroke="none" d="M 993 277 L 1189 277 Q 1199 277 1199 287 L 1199 306 Q 1199 316 1189 316 L 993 316 Q 983 316 983 306 L 983 287 Q 983 277 993 277 Z"/></g><g transform="translate(-78,-46) scale(1,1)"><path fill="none" stroke="#000000" d="M 993 277 L 1189 277 Q 1199 277 1199 287 L 1199 306 Q 1199 316 1189 316 L 993 316 Q 983 316 983 306 L 983 287 Q 983 277 993 277 Z" stroke-miterlimit="10"/></g><g transform="translate(-78,-46) scale(1,1)"><g><path fill="none" stroke="none"/><text fill="#000000" stroke="none" font-family="Arial" font-size="13px" font-style="normal" font-weight="bold" text-decoration="none" x="1028.504150390625" y="296.5">Text cu multiple spații</text><text fill="#000000" stroke="none" font-family="Arial" font-size="13px" font-style="normal" font-weight="bold" text-decoration="none" x="1028.8564453125" y="309.5">consecutive eliminate</text></g></g><g transform="translate(-78,-46) scale(1,1)"><path fill="none" stroke="#000000" d="M 1091 116 L 1091 142" stroke-miterlimit="10"/></g><g transform="translate(-78,-46) scale(1,1)"><path fill="none" stroke="#000000" d="M 1086.7904822439841 131.83732514237585 L 1091 142 L 1095.2095177560159 131.83732514237585" stroke-miterlimit="10"/></g><g transform="translate(-78,-46) scale(1,1)"><path fill="none" stroke="#000000" d="M 1091 183 L 1091 209" stroke-miterlimit="10"/></g><g transform="translate(-78,-46) scale(1,1)"><path fill="none" stroke="#000000" d="M 1086.7904822439841 198.83732514237585 L 1091 209 L 1095.2095177560159 198.83732514237585" stroke-miterlimit="10"/></g><g transform="translate(-78,-46) scale(1,1)"><path fill="none" stroke="#000000" d="M 1091 250 L 1091 276" stroke-miterlimit="10"/></g><g transform="translate(-78,-46) scale(1,1)"><path fill="none" stroke="#000000" d="M 1086.7904822439841 265.83732514237585 L 1091 276 L 1095.2095177560159 265.83732514237585" stroke-miterlimit="10"/></g><g transform="translate(-78,-46) scale(1,1)"><path fill="none" stroke="#000000" d="M 1091 317 L 1091 343" stroke-miterlimit="10"/></g><g transform="translate(-78,-46) scale(1,1)"><path fill="none" stroke="#000000" d="M 1086.7904822439841 332.83732514237585 L 1091 343 L 1095.2095177560159 332.83732514237585" stroke-miterlimit="10"/></g><g transform="translate(-78,-46) scale(1,1)"><path fill="none" stroke="#000000" d="M 817 220 L 927 220" stroke-miterlimit="10"/></g><g transform="translate(-78,-46) scale(1,1)"><path fill="none" stroke="#000000" d="M 916.8373251423759 224.209517756016 L 927 220 L 916.8373251423758 215.790482243984" stroke-miterlimit="10"/></g><g transform="translate(-78,-46) scale(1,1)"><g><path fill="none" stroke="none"/><text fill="#000000" stroke="none" font-family="Arial" font-size="13px" font-style="normal" font-weight="normal" text-decoration="none" x="829" y="170">Eliminarea</text><text fill="#000000" stroke="none" font-family="Arial" font-size="13px" font-style="normal" font-weight="normal" text-decoration="none" x="829" y="183">spațiilor</text><text fill="#000000" stroke="none" font-family="Arial" font-size="13px" font-style="normal" font-weight="normal" text-decoration="none" x="829" y="196">redundante</text><text fill="#000000" stroke="none" font-family="Arial" font-size="13px" font-style="normal" font-weight="normal" text-decoration="none" x="829" y="209">din text</text></g></g><g transform="translate(-78,-46) scale(1,1)"><path fill="#C0C0C0" stroke="none" d="M 1367 227.5 C 1367 220.59644 1372.59644 215 1379.5 215 C 1386.40356 215 1392 220.59644 1392 227.5 C 1392 234.40356 1386.40356 240 1379.5 240 C 1372.59644 240 1367 234.40356 1367 227.5 Z" opacity="0.2"/></g><g transform="translate(-78,-46) scale(1,1)"><path fill="none" stroke="#000000" d="M 1360 220.5 C 1360 213.59644 1365.59644 208 1372.5 208 C 1379.40356 208 1385 213.59644 1385 220.5 C 1385 227.40356 1379.40356 233 1372.5 233 C 1365.59644 233 1360 227.40356 1360 220.5 Z" stroke-miterlimit="10"/></g><g transform="translate(-78,-46) scale(1,1)"><path fill="#000000" stroke="none" d="M 1365 220.5 C 1365 216.357864 1368.357864 213 1372.5 213 C 1376.642136 213 1380 216.357864 1380 220.5 C 1380 224.642136 1376.642136 228 1372.5 228 C 1368.357864 228 1365 224.642136 1365 220.5 Z"/></g><g transform="translate(-78,-46) scale(1,1)"><path fill="none" stroke="#000000" d="M 1244 220 L 1359 220" stroke-miterlimit="10"/></g><g transform="translate(-78,-46) scale(1,1)"><path fill="none" stroke="#000000" d="M 1348.837325142376 224.209517756016 L 1359 220 L 1348.837325142376 215.790482243984" stroke-miterlimit="10"/></g></g></svg>